<?xml version="1.0" encoding="UTF-8"?>
<svg xmlns="http://www.w3.org/2000/svg" viewBox="0 0 1619.1 400" width="1619" height="400">
  <!-- Poincare disk logo -->

  <defs>
    <clipPath id="disk-clip">
      <circle cx="200" cy="200" r="180"/>
    </clipPath>
  </defs>

  <g clip-path="url(#disk-clip)">
    <path d="M 380.00,200.00 A 83.94,83.94 0 0,0 315.70,337.89" fill="none" stroke="#a0c4f0" stroke-width="0.4" opacity="0.3"/>
    <path d="M 377.27,231.26 A 83.94,83.94 0 0,0 290.00,355.88" fill="none" stroke="#a0c4f0" stroke-width="0.4" opacity="0.3"/>
    <path d="M 369.14,261.56 A 83.94,83.94 0 0,0 261.56,369.14" fill="none" stroke="#a0c4f0" stroke-width="0.4" opacity="0.3"/>
    <path d="M 355.88,290.00 A 83.94,83.94 0 0,0 231.26,377.27" fill="none" stroke="#a0c4f0" stroke-width="0.4" opacity="0.3"/>
    <path d="M 337.89,315.70 A 83.94,83.94 0 0,0 200.00,380.00" fill="none" stroke="#a0c4f0" stroke-width="0.4" opacity="0.3"/>
    <path d="M 315.70,337.89 A 83.94,83.94 0 0,0 168.74,377.27" fill="none" stroke="#a0c4f0" stroke-width="0.4" opacity="0.3"/>
    <path d="M 290.00,355.88 A 83.94,83.94 0 0,0 138.44,369.14" fill="none" stroke="#a0c4f0" stroke-width="0.4" opacity="0.3"/>
    <path d="M 261.56,369.14 A 83.94,83.94 0 0,0 110.00,355.88" fill="none" stroke="#a0c4f0" stroke-width="0.4" opacity="0.3"/>
    <path d="M 231.26,377.27 A 83.94,83.94 0 0,0 84.30,337.89" fill="none" stroke="#a0c4f0" stroke-width="0.4" opacity="0.3"/>
    <path d="M 200.00,380.00 A 83.94,83.94 0 0,0 62.11,315.70" fill="none" stroke="#a0c4f0" stroke-width="0.4" opacity="0.3"/>
    <path d="M 168.74,377.27 A 83.94,83.94 0 0,0 44.12,290.00" fill="none" stroke="#a0c4f0" stroke-width="0.4" opacity="0.3"/>
    <path d="M 138.44,369.14 A 83.94,83.94 0 0,0 30.86,261.56" fill="none" stroke="#a0c4f0" stroke-width="0.4" opacity="0.3"/>
    <path d="M 110.00,355.88 A 83.94,83.94 0 0,0 22.73,231.26" fill="none" stroke="#a0c4f0" stroke-width="0.4" opacity="0.3"/>
    <path d="M 84.30,337.89 A 83.94,83.94 0 0,0 20.00,200.00" fill="none" stroke="#a0c4f0" stroke-width="0.4" opacity="0.3"/>
    <path d="M 62.11,315.70 A 83.94,83.94 0 0,0 22.73,168.74" fill="none" stroke="#a0c4f0" stroke-width="0.4" opacity="0.3"/>
    <path d="M 44.12,290.00 A 83.94,83.94 0 0,0 30.86,138.44" fill="none" stroke="#a0c4f0" stroke-width="0.4" opacity="0.3"/>
    <path d="M 30.86,261.56 A 83.94,83.94 0 0,0 44.12,110.00" fill="none" stroke="#a0c4f0" stroke-width="0.4" opacity="0.3"/>
    <path d="M 22.73,231.26 A 83.94,83.94 0 0,0 62.11,84.30" fill="none" stroke="#a0c4f0" stroke-width="0.4" opacity="0.3"/>
    <path d="M 20.00,200.00 A 83.94,83.94 0 0,0 84.30,62.11" fill="none" stroke="#a0c4f0" stroke-width="0.4" opacity="0.3"/>
    <path d="M 22.73,168.74 A 83.94,83.94 0 0,0 110.00,44.12" fill="none" stroke="#a0c4f0" stroke-width="0.4" opacity="0.3"/>
    <path d="M 30.86,138.44 A 83.94,83.94 0 0,0 138.44,30.86" fill="none" stroke="#a0c4f0" stroke-width="0.4" opacity="0.3"/>
    <path d="M 44.12,110.00 A 83.94,83.94 0 0,0 168.74,22.73" fill="none" stroke="#a0c4f0" stroke-width="0.4" opacity="0.3"/>
    <path d="M 62.11,84.30 A 83.94,83.94 0 0,0 200.00,20.00" fill="none" stroke="#a0c4f0" stroke-width="0.4" opacity="0.3"/>
    <path d="M 84.30,62.11 A 83.94,83.94 0 0,0 231.26,22.73" fill="none" stroke="#a0c4f0" stroke-width="0.4" opacity="0.3"/>
    <path d="M 110.00,44.12 A 83.94,83.94 0 0,0 261.56,30.86" fill="none" stroke="#a0c4f0" stroke-width="0.4" opacity="0.3"/>
    <path d="M 138.44,30.86 A 83.94,83.94 0 0,0 290.00,44.12" fill="none" stroke="#a0c4f0" stroke-width="0.4" opacity="0.3"/>
    <path d="M 168.74,22.73 A 83.94,83.94 0 0,0 315.70,62.11" fill="none" stroke="#a0c4f0" stroke-width="0.4" opacity="0.3"/>
    <path d="M 200.00,20.00 A 83.94,83.94 0 0,0 337.89,84.30" fill="none" stroke="#a0c4f0" stroke-width="0.4" opacity="0.3"/>
    <path d="M 231.26,22.73 A 83.94,83.94 0 0,0 355.88,110.00" fill="none" stroke="#a0c4f0" stroke-width="0.4" opacity="0.3"/>
    <path d="M 261.56,30.86 A 83.94,83.94 0 0,0 369.14,138.44" fill="none" stroke="#a0c4f0" stroke-width="0.4" opacity="0.3"/>
    <path d="M 290.00,44.12 A 83.94,83.94 0 0,0 377.27,168.74" fill="none" stroke="#a0c4f0" stroke-width="0.4" opacity="0.3"/>
    <path d="M 315.70,62.11 A 83.94,83.94 0 0,0 380.00,200.00" fill="none" stroke="#a0c4f0" stroke-width="0.4" opacity="0.3"/>
    <path d="M 337.89,84.30 A 83.94,83.94 0 0,0 377.27,231.26" fill="none" stroke="#a0c4f0" stroke-width="0.4" opacity="0.3"/>
    <path d="M 355.88,110.00 A 83.94,83.94 0 0,0 369.14,261.56" fill="none" stroke="#a0c4f0" stroke-width="0.4" opacity="0.3"/>
    <path d="M 369.14,138.44 A 83.94,83.94 0 0,0 355.88,290.00" fill="none" stroke="#a0c4f0" stroke-width="0.4" opacity="0.3"/>
    <path d="M 377.27,168.74 A 83.94,83.94 0 0,0 337.89,315.70" fill="none" stroke="#a0c4f0" stroke-width="0.4" opacity="0.3"/>
    <path d="M 380.00,200.00 A 257.07,257.07 0 0,0 138.44,369.14" fill="none" stroke="#a0c4f0" stroke-width="0.4" opacity="0.3"/>
    <path d="M 377.27,231.26 A 257.07,257.07 0 0,0 110.00,355.88" fill="none" stroke="#a0c4f0" stroke-width="0.4" opacity="0.3"/>
    <path d="M 369.14,261.56 A 257.07,257.07 0 0,0 84.30,337.89" fill="none" stroke="#a0c4f0" stroke-width="0.4" opacity="0.3"/>
    <path d="M 355.88,290.00 A 257.07,257.07 0 0,0 62.11,315.70" fill="none" stroke="#a0c4f0" stroke-width="0.4" opacity="0.3"/>
    <path d="M 337.89,315.70 A 257.07,257.07 0 0,0 44.12,290.00" fill="none" stroke="#a0c4f0" stroke-width="0.4" opacity="0.3"/>
    <path d="M 315.70,337.89 A 257.07,257.07 0 0,0 30.86,261.56" fill="none" stroke="#a0c4f0" stroke-width="0.4" opacity="0.3"/>
    <path d="M 290.00,355.88 A 257.07,257.07 0 0,0 22.73,231.26" fill="none" stroke="#a0c4f0" stroke-width="0.4" opacity="0.3"/>
    <path d="M 261.56,369.14 A 257.07,257.07 0 0,0 20.00,200.00" fill="none" stroke="#a0c4f0" stroke-width="0.4" opacity="0.3"/>
    <path d="M 231.26,377.27 A 257.07,257.07 0 0,0 22.73,168.74" fill="none" stroke="#a0c4f0" stroke-width="0.4" opacity="0.3"/>
    <path d="M 200.00,380.00 A 257.07,257.07 0 0,0 30.86,138.44" fill="none" stroke="#a0c4f0" stroke-width="0.4" opacity="0.3"/>
    <path d="M 168.74,377.27 A 257.07,257.07 0 0,0 44.12,110.00" fill="none" stroke="#a0c4f0" stroke-width="0.4" opacity="0.3"/>
    <path d="M 138.44,369.14 A 257.07,257.07 0 0,0 62.11,84.30" fill="none" stroke="#a0c4f0" stroke-width="0.4" opacity="0.3"/>
    <path d="M 110.00,355.88 A 257.07,257.07 0 0,0 84.30,62.11" fill="none" stroke="#a0c4f0" stroke-width="0.4" opacity="0.3"/>
    <path d="M 84.30,337.89 A 257.07,257.07 0 0,0 110.00,44.12" fill="none" stroke="#a0c4f0" stroke-width="0.4" opacity="0.3"/>
    <path d="M 62.11,315.70 A 257.07,257.07 0 0,0 138.44,30.86" fill="none" stroke="#a0c4f0" stroke-width="0.4" opacity="0.3"/>
    <path d="M 44.12,290.00 A 257.07,257.07 0 0,0 168.74,22.73" fill="none" stroke="#a0c4f0" stroke-width="0.4" opacity="0.3"/>
    <path d="M 30.86,261.56 A 257.07,257.07 0 0,0 200.00,20.00" fill="none" stroke="#a0c4f0" stroke-width="0.4" opacity="0.3"/>
    <path d="M 22.73,231.26 A 257.07,257.07 0 0,0 231.26,22.73" fill="none" stroke="#a0c4f0" stroke-width="0.4" opacity="0.3"/>
    <path d="M 20.00,200.00 A 257.07,257.07 0 0,0 261.56,30.86" fill="none" stroke="#a0c4f0" stroke-width="0.4" opacity="0.3"/>
    <path d="M 22.73,168.74 A 257.07,257.07 0 0,0 290.00,44.12" fill="none" stroke="#a0c4f0" stroke-width="0.4" opacity="0.3"/>
    <path d="M 30.86,138.44 A 257.07,257.07 0 0,0 315.70,62.11" fill="none" stroke="#a0c4f0" stroke-width="0.4" opacity="0.3"/>
    <path d="M 44.12,110.00 A 257.07,257.07 0 0,0 337.89,84.30" fill="none" stroke="#a0c4f0" stroke-width="0.4" opacity="0.3"/>
    <path d="M 62.11,84.30 A 257.07,257.07 0 0,0 355.88,110.00" fill="none" stroke="#a0c4f0" stroke-width="0.4" opacity="0.3"/>
    <path d="M 84.30,62.11 A 257.07,257.07 0 0,0 369.14,138.44" fill="none" stroke="#a0c4f0" stroke-width="0.4" opacity="0.3"/>
    <path d="M 110.00,44.12 A 257.07,257.07 0 0,0 377.27,168.74" fill="none" stroke="#a0c4f0" stroke-width="0.4" opacity="0.3"/>
    <path d="M 138.44,30.86 A 257.07,257.07 0 0,0 380.00,200.00" fill="none" stroke="#a0c4f0" stroke-width="0.4" opacity="0.3"/>
    <path d="M 168.74,22.73 A 257.07,257.07 0 0,0 377.27,231.26" fill="none" stroke="#a0c4f0" stroke-width="0.4" opacity="0.3"/>
    <path d="M 200.00,20.00 A 257.07,257.07 0 0,0 369.14,261.56" fill="none" stroke="#a0c4f0" stroke-width="0.4" opacity="0.3"/>
    <path d="M 231.26,22.73 A 257.07,257.07 0 0,0 355.88,290.00" fill="none" stroke="#a0c4f0" stroke-width="0.4" opacity="0.3"/>
    <path d="M 261.56,30.86 A 257.07,257.07 0 0,0 337.89,315.70" fill="none" stroke="#a0c4f0" stroke-width="0.4" opacity="0.3"/>
    <path d="M 290.00,44.12 A 257.07,257.07 0 0,0 315.70,337.89" fill="none" stroke="#a0c4f0" stroke-width="0.4" opacity="0.3"/>
    <path d="M 315.70,62.11 A 257.07,257.07 0 0,0 290.00,355.88" fill="none" stroke="#a0c4f0" stroke-width="0.4" opacity="0.3"/>
    <path d="M 337.89,84.30 A 257.07,257.07 0 0,0 261.56,369.14" fill="none" stroke="#a0c4f0" stroke-width="0.4" opacity="0.3"/>
    <path d="M 355.88,110.00 A 257.07,257.07 0 0,0 231.26,377.27" fill="none" stroke="#a0c4f0" stroke-width="0.4" opacity="0.3"/>
    <path d="M 369.14,138.44 A 257.07,257.07 0 0,0 200.00,380.00" fill="none" stroke="#a0c4f0" stroke-width="0.4" opacity="0.3"/>
    <path d="M 377.27,168.74 A 257.07,257.07 0 0,0 168.74,377.27" fill="none" stroke="#a0c4f0" stroke-width="0.4" opacity="0.3"/>
    <path d="M 380.00,200.00 A 2057.41,2057.41 0 0,0 22.73,231.26" fill="none" stroke="#2b8cdc" stroke-width="0.2" opacity="0.8"/>
    <path d="M 377.27,231.26 A 2057.41,2057.41 0 0,0 20.00,200.00" fill="none" stroke="#2b8cdc" stroke-width="0.2" opacity="0.8"/>
    <path d="M 369.14,261.56 A 2057.41,2057.41 0 0,0 22.73,168.74" fill="none" stroke="#2b8cdc" stroke-width="0.2" opacity="0.8"/>
    <path d="M 355.88,290.00 A 2057.41,2057.41 0 0,0 30.86,138.44" fill="none" stroke="#2b8cdc" stroke-width="0.2" opacity="0.8"/>
    <path d="M 337.89,315.70 A 2057.41,2057.41 0 0,0 44.12,110.00" fill="none" stroke="#2b8cdc" stroke-width="0.2" opacity="0.8"/>
    <path d="M 315.70,337.89 A 2057.41,2057.41 0 0,0 62.11,84.30" fill="none" stroke="#2b8cdc" stroke-width="0.2" opacity="0.8"/>
    <path d="M 290.00,355.88 A 2057.41,2057.41 0 0,0 84.30,62.11" fill="none" stroke="#2b8cdc" stroke-width="0.2" opacity="0.8"/>
    <path d="M 261.56,369.14 A 2057.41,2057.41 0 0,0 110.00,44.12" fill="none" stroke="#2b8cdc" stroke-width="0.2" opacity="0.8"/>
    <path d="M 231.26,377.27 A 2057.41,2057.41 0 0,0 138.44,30.86" fill="none" stroke="#2b8cdc" stroke-width="0.2" opacity="0.8"/>
    <path d="M 200.00,380.00 A 2057.41,2057.41 0 0,0 168.74,22.73" fill="none" stroke="#2b8cdc" stroke-width="0.2" opacity="0.8"/>
    <path d="M 168.74,377.27 A 2057.41,2057.41 0 0,0 200.00,20.00" fill="none" stroke="#2b8cdc" stroke-width="0.2" opacity="0.8"/>
    <path d="M 138.44,369.14 A 2057.41,2057.41 0 0,0 231.26,22.73" fill="none" stroke="#2b8cdc" stroke-width="0.2" opacity="0.8"/>
    <path d="M 110.00,355.88 A 2057.41,2057.41 0 0,0 261.56,30.86" fill="none" stroke="#2b8cdc" stroke-width="0.2" opacity="0.8"/>
    <path d="M 84.30,337.89 A 2057.41,2057.41 0 0,0 290.00,44.12" fill="none" stroke="#2b8cdc" stroke-width="0.2" opacity="0.8"/>
    <path d="M 62.11,315.70 A 2057.41,2057.41 0 0,0 315.70,62.11" fill="none" stroke="#2b8cdc" stroke-width="0.2" opacity="0.8"/>
    <path d="M 44.12,290.00 A 2057.41,2057.41 0 0,0 337.89,84.30" fill="none" stroke="#2b8cdc" stroke-width="0.2" opacity="0.8"/>
    <path d="M 30.86,261.56 A 2057.41,2057.41 0 0,0 355.88,110.00" fill="none" stroke="#2b8cdc" stroke-width="0.2" opacity="0.8"/>
    <path d="M 22.73,231.26 A 2057.41,2057.41 0 0,0 369.14,138.44" fill="none" stroke="#2b8cdc" stroke-width="0.2" opacity="0.8"/>
    <path d="M 20.00,200.00 A 2057.41,2057.41 0 0,0 377.27,168.74" fill="none" stroke="#2b8cdc" stroke-width="0.2" opacity="0.8"/>
    <path d="M 22.73,168.74 A 2057.41,2057.41 0 0,0 380.00,200.00" fill="none" stroke="#2b8cdc" stroke-width="0.2" opacity="0.8"/>
    <path d="M 30.86,138.44 A 2057.41,2057.41 0 0,0 377.27,231.26" fill="none" stroke="#2b8cdc" stroke-width="0.2" opacity="0.8"/>
    <path d="M 44.12,110.00 A 2057.41,2057.41 0 0,0 369.14,261.56" fill="none" stroke="#2b8cdc" stroke-width="0.2" opacity="0.8"/>
    <path d="M 62.11,84.30 A 2057.41,2057.41 0 0,0 355.88,290.00" fill="none" stroke="#2b8cdc" stroke-width="0.2" opacity="0.8"/>
    <path d="M 84.30,62.11 A 2057.41,2057.41 0 0,0 337.89,315.70" fill="none" stroke="#2b8cdc" stroke-width="0.2" opacity="0.8"/>
    <path d="M 110.00,44.12 A 2057.41,2057.41 0 0,0 315.70,337.89" fill="none" stroke="#2b8cdc" stroke-width="0.2" opacity="0.8"/>
    <path d="M 138.44,30.86 A 2057.41,2057.41 0 0,0 290.00,355.88" fill="none" stroke="#2b8cdc" stroke-width="0.2" opacity="0.8"/>
    <path d="M 168.74,22.73 A 2057.41,2057.41 0 0,0 261.56,369.14" fill="none" stroke="#2b8cdc" stroke-width="0.2" opacity="0.8"/>
    <path d="M 200.00,20.00 A 2057.41,2057.41 0 0,0 231.26,377.27" fill="none" stroke="#2b8cdc" stroke-width="0.2" opacity="0.8"/>
    <path d="M 231.26,22.73 A 2057.41,2057.41 0 0,0 200.00,380.00" fill="none" stroke="#2b8cdc" stroke-width="0.2" opacity="0.8"/>
    <path d="M 261.56,30.86 A 2057.41,2057.41 0 0,0 168.74,377.27" fill="none" stroke="#2b8cdc" stroke-width="0.2" opacity="0.8"/>
    <path d="M 290.00,44.12 A 2057.41,2057.41 0 0,0 138.44,369.14" fill="none" stroke="#2b8cdc" stroke-width="0.2" opacity="0.8"/>
    <path d="M 315.70,62.11 A 2057.41,2057.41 0 0,0 110.00,355.88" fill="none" stroke="#2b8cdc" stroke-width="0.2" opacity="0.8"/>
    <path d="M 337.89,84.30 A 2057.41,2057.41 0 0,0 84.30,337.89" fill="none" stroke="#2b8cdc" stroke-width="0.2" opacity="0.8"/>
    <path d="M 355.88,110.00 A 2057.41,2057.41 0 0,0 62.11,315.70" fill="none" stroke="#2b8cdc" stroke-width="0.2" opacity="0.8"/>
    <path d="M 369.14,138.44 A 2057.41,2057.41 0 0,0 44.12,290.00" fill="none" stroke="#2b8cdc" stroke-width="0.2" opacity="0.8"/>
    <path d="M 377.27,168.74 A 2057.41,2057.41 0 0,0 30.86,261.56" fill="none" stroke="#2b8cdc" stroke-width="0.2" opacity="0.8"/>
    <path d="M 380.00,200.00 A 74.56,74.56 0 0,0 327.28,327.28" fill="none" stroke="#88b8e8" stroke-width="1.0" opacity="0.5"/>
    <path d="M 373.87,246.59 A 74.56,74.56 0 0,0 290.00,355.88" fill="none" stroke="#88b8e8" stroke-width="1.0" opacity="0.5"/>
    <path d="M 355.88,290.00 A 74.56,74.56 0 0,0 246.59,373.87" fill="none" stroke="#88b8e8" stroke-width="1.0" opacity="0.5"/>
    <path d="M 327.28,327.28 A 74.56,74.56 0 0,0 200.00,380.00" fill="none" stroke="#88b8e8" stroke-width="1.0" opacity="0.5"/>
    <path d="M 290.00,355.88 A 74.56,74.56 0 0,0 153.41,373.87" fill="none" stroke="#88b8e8" stroke-width="1.0" opacity="0.5"/>
    <path d="M 246.59,373.87 A 74.56,74.56 0 0,0 110.00,355.88" fill="none" stroke="#88b8e8" stroke-width="1.0" opacity="0.5"/>
    <path d="M 200.00,380.00 A 74.56,74.56 0 0,0 72.72,327.28" fill="none" stroke="#88b8e8" stroke-width="1.0" opacity="0.5"/>
    <path d="M 153.41,373.87 A 74.56,74.56 0 0,0 44.12,290.00" fill="none" stroke="#88b8e8" stroke-width="1.0" opacity="0.5"/>
    <path d="M 110.00,355.88 A 74.56,74.56 0 0,0 26.13,246.59" fill="none" stroke="#88b8e8" stroke-width="1.0" opacity="0.5"/>
    <path d="M 72.72,327.28 A 74.56,74.56 0 0,0 20.00,200.00" fill="none" stroke="#88b8e8" stroke-width="1.0" opacity="0.5"/>
    <path d="M 44.12,290.00 A 74.56,74.56 0 0,0 26.13,153.41" fill="none" stroke="#88b8e8" stroke-width="1.0" opacity="0.5"/>
    <path d="M 26.13,246.59 A 74.56,74.56 0 0,0 44.12,110.00" fill="none" stroke="#88b8e8" stroke-width="1.0" opacity="0.5"/>
    <path d="M 20.00,200.00 A 74.56,74.56 0 0,0 72.72,72.72" fill="none" stroke="#88b8e8" stroke-width="1.0" opacity="0.5"/>
    <path d="M 26.13,153.41 A 74.56,74.56 0 0,0 110.00,44.12" fill="none" stroke="#88b8e8" stroke-width="1.0" opacity="0.5"/>
    <path d="M 44.12,110.00 A 74.56,74.56 0 0,0 153.41,26.13" fill="none" stroke="#88b8e8" stroke-width="1.0" opacity="0.5"/>
    <path d="M 72.72,72.72 A 74.56,74.56 0 0,0 200.00,20.00" fill="none" stroke="#88b8e8" stroke-width="1.0" opacity="0.5"/>
    <path d="M 110.00,44.12 A 74.56,74.56 0 0,0 246.59,26.13" fill="none" stroke="#88b8e8" stroke-width="1.0" opacity="0.5"/>
    <path d="M 153.41,26.13 A 74.56,74.56 0 0,0 290.00,44.12" fill="none" stroke="#88b8e8" stroke-width="1.0" opacity="0.5"/>
    <path d="M 200.00,20.00 A 74.56,74.56 0 0,0 327.28,72.72" fill="none" stroke="#88b8e8" stroke-width="1.0" opacity="0.5"/>
    <path d="M 246.59,26.13 A 74.56,74.56 0 0,0 355.88,110.00" fill="none" stroke="#88b8e8" stroke-width="1.0" opacity="0.5"/>
    <path d="M 290.00,44.12 A 74.56,74.56 0 0,0 373.87,153.41" fill="none" stroke="#88b8e8" stroke-width="1.0" opacity="0.5"/>
    <path d="M 327.28,72.72 A 74.56,74.56 0 0,0 380.00,200.00" fill="none" stroke="#88b8e8" stroke-width="1.0" opacity="0.5"/>
    <path d="M 355.88,110.00 A 74.56,74.56 0 0,0 373.87,246.59" fill="none" stroke="#88b8e8" stroke-width="1.0" opacity="0.5"/>
    <path d="M 373.87,153.41 A 74.56,74.56 0 0,0 355.88,290.00" fill="none" stroke="#88b8e8" stroke-width="1.0" opacity="0.5"/>
    <path d="M 380.00,200.00 A 138.12,138.12 0 0,0 246.59,373.87" fill="none" stroke="#88b8e8" stroke-width="0.85" opacity="0.65"/>
    <path d="M 373.87,246.59 A 138.12,138.12 0 0,0 200.00,380.00" fill="none" stroke="#88b8e8" stroke-width="0.85" opacity="0.65"/>
    <path d="M 355.88,290.00 A 138.12,138.12 0 0,0 153.41,373.87" fill="none" stroke="#88b8e8" stroke-width="0.85" opacity="0.65"/>
    <path d="M 327.28,327.28 A 138.12,138.12 0 0,0 110.00,355.88" fill="none" stroke="#88b8e8" stroke-width="0.85" opacity="0.65"/>
    <path d="M 290.00,355.88 A 138.12,138.12 0 0,0 72.72,327.28" fill="none" stroke="#88b8e8" stroke-width="0.85" opacity="0.65"/>
    <path d="M 246.59,373.87 A 138.12,138.12 0 0,0 44.12,290.00" fill="none" stroke="#88b8e8" stroke-width="0.85" opacity="0.65"/>
    <path d="M 200.00,380.00 A 138.12,138.12 0 0,0 26.13,246.59" fill="none" stroke="#88b8e8" stroke-width="0.85" opacity="0.65"/>
    <path d="M 153.41,373.87 A 138.12,138.12 0 0,0 20.00,200.00" fill="none" stroke="#88b8e8" stroke-width="0.85" opacity="0.65"/>
    <path d="M 110.00,355.88 A 138.12,138.12 0 0,0 26.13,153.41" fill="none" stroke="#88b8e8" stroke-width="0.85" opacity="0.65"/>
    <path d="M 72.72,327.28 A 138.12,138.12 0 0,0 44.12,110.00" fill="none" stroke="#88b8e8" stroke-width="0.85" opacity="0.65"/>
    <path d="M 44.12,290.00 A 138.12,138.12 0 0,0 72.72,72.72" fill="none" stroke="#88b8e8" stroke-width="0.85" opacity="0.65"/>
    <path d="M 26.13,246.59 A 138.12,138.12 0 0,0 110.00,44.12" fill="none" stroke="#88b8e8" stroke-width="0.85" opacity="0.65"/>
    <path d="M 20.00,200.00 A 138.12,138.12 0 0,0 153.41,26.13" fill="none" stroke="#88b8e8" stroke-width="0.85" opacity="0.65"/>
    <path d="M 26.13,153.41 A 138.12,138.12 0 0,0 200.00,20.00" fill="none" stroke="#88b8e8" stroke-width="0.85" opacity="0.65"/>
    <path d="M 44.12,110.00 A 138.12,138.12 0 0,0 246.59,26.13" fill="none" stroke="#88b8e8" stroke-width="0.85" opacity="0.65"/>
    <path d="M 72.72,72.72 A 138.12,138.12 0 0,0 290.00,44.12" fill="none" stroke="#88b8e8" stroke-width="0.85" opacity="0.65"/>
    <path d="M 110.00,44.12 A 138.12,138.12 0 0,0 327.28,72.72" fill="none" stroke="#88b8e8" stroke-width="0.85" opacity="0.65"/>
    <path d="M 153.41,26.13 A 138.12,138.12 0 0,0 355.88,110.00" fill="none" stroke="#88b8e8" stroke-width="0.85" opacity="0.65"/>
    <path d="M 200.00,20.00 A 138.12,138.12 0 0,0 373.87,153.41" fill="none" stroke="#88b8e8" stroke-width="0.85" opacity="0.65"/>
    <path d="M 246.59,26.13 A 138.12,138.12 0 0,0 380.00,200.00" fill="none" stroke="#88b8e8" stroke-width="0.85" opacity="0.65"/>
    <path d="M 290.00,44.12 A 138.12,138.12 0 0,0 373.87,246.59" fill="none" stroke="#88b8e8" stroke-width="0.85" opacity="0.65"/>
    <path d="M 327.28,72.72 A 138.12,138.12 0 0,0 355.88,290.00" fill="none" stroke="#88b8e8" stroke-width="0.85" opacity="0.65"/>
    <path d="M 355.88,110.00 A 138.12,138.12 0 0,0 327.28,327.28" fill="none" stroke="#88b8e8" stroke-width="0.85" opacity="0.65"/>
    <path d="M 373.87,153.41 A 138.12,138.12 0 0,0 290.00,355.88" fill="none" stroke="#88b8e8" stroke-width="0.85" opacity="0.65"/>
    <path d="M 380.00,200.00 A 234.58,234.58 0 0,0 153.41,373.87" fill="none" stroke="#90c0f0" stroke-width="0.7" opacity="0.5"/>
    <path d="M 373.87,246.59 A 234.58,234.58 0 0,0 110.00,355.88" fill="none" stroke="#90c0f0" stroke-width="0.7" opacity="0.5"/>
    <path d="M 355.88,290.00 A 234.58,234.58 0 0,0 72.72,327.28" fill="none" stroke="#90c0f0" stroke-width="0.7" opacity="0.5"/>
    <path d="M 327.28,327.28 A 234.58,234.58 0 0,0 44.12,290.00" fill="none" stroke="#90c0f0" stroke-width="0.7" opacity="0.5"/>
    <path d="M 290.00,355.88 A 234.58,234.58 0 0,0 26.13,246.59" fill="none" stroke="#90c0f0" stroke-width="0.7" opacity="0.5"/>
    <path d="M 246.59,373.87 A 234.58,234.58 0 0,0 20.00,200.00" fill="none" stroke="#90c0f0" stroke-width="0.7" opacity="0.5"/>
    <path d="M 200.00,380.00 A 234.58,234.58 0 0,0 26.13,153.41" fill="none" stroke="#90c0f0" stroke-width="0.7" opacity="0.5"/>
    <path d="M 153.41,373.87 A 234.58,234.58 0 0,0 44.12,110.00" fill="none" stroke="#90c0f0" stroke-width="0.7" opacity="0.5"/>
    <path d="M 110.00,355.88 A 234.58,234.58 0 0,0 72.72,72.72" fill="none" stroke="#90c0f0" stroke-width="0.7" opacity="0.5"/>
    <path d="M 72.72,327.28 A 234.58,234.58 0 0,0 110.00,44.12" fill="none" stroke="#90c0f0" stroke-width="0.7" opacity="0.5"/>
    <path d="M 44.12,290.00 A 234.58,234.58 0 0,0 153.41,26.13" fill="none" stroke="#90c0f0" stroke-width="0.7" opacity="0.5"/>
    <path d="M 26.13,246.59 A 234.58,234.58 0 0,0 200.00,20.00" fill="none" stroke="#90c0f0" stroke-width="0.7" opacity="0.5"/>
    <path d="M 20.00,200.00 A 234.58,234.58 0 0,0 246.59,26.13" fill="none" stroke="#90c0f0" stroke-width="0.7" opacity="0.5"/>
    <path d="M 26.13,153.41 A 234.58,234.58 0 0,0 290.00,44.12" fill="none" stroke="#90c0f0" stroke-width="0.7" opacity="0.5"/>
    <path d="M 44.12,110.00 A 234.58,234.58 0 0,0 327.28,72.72" fill="none" stroke="#90c0f0" stroke-width="0.7" opacity="0.5"/>
    <path d="M 72.72,72.72 A 234.58,234.58 0 0,0 355.88,110.00" fill="none" stroke="#90c0f0" stroke-width="0.7" opacity="0.5"/>
    <path d="M 110.00,44.12 A 234.58,234.58 0 0,0 373.87,153.41" fill="none" stroke="#90c0f0" stroke-width="0.7" opacity="0.5"/>
    <path d="M 153.41,26.13 A 234.58,234.58 0 0,0 380.00,200.00" fill="none" stroke="#90c0f0" stroke-width="0.7" opacity="0.5"/>
    <path d="M 200.00,20.00 A 234.58,234.58 0 0,0 373.87,246.59" fill="none" stroke="#90c0f0" stroke-width="0.7" opacity="0.5"/>
    <path d="M 246.59,26.13 A 234.58,234.58 0 0,0 355.88,290.00" fill="none" stroke="#90c0f0" stroke-width="0.7" opacity="0.5"/>
    <path d="M 290.00,44.12 A 234.58,234.58 0 0,0 327.28,327.28" fill="none" stroke="#90c0f0" stroke-width="0.7" opacity="0.5"/>
    <path d="M 327.28,72.72 A 234.58,234.58 0 0,0 290.00,355.88" fill="none" stroke="#90c0f0" stroke-width="0.7" opacity="0.5"/>
    <path d="M 355.88,110.00 A 234.58,234.58 0 0,0 246.59,373.87" fill="none" stroke="#90c0f0" stroke-width="0.7" opacity="0.5"/>
    <path d="M 373.87,153.41 A 234.58,234.58 0 0,0 200.00,380.00" fill="none" stroke="#90c0f0" stroke-width="0.7" opacity="0.5"/>
    <path d="M 380.00,200.00 A 1367.24,1367.24 0 0,0 26.13,246.59" fill="none" stroke="#542ba4" stroke-width="0.5" opacity="0.5"/>
    <path d="M 373.87,246.59 A 1367.24,1367.24 0 0,0 20.00,200.00" fill="none" stroke="#542ba4" stroke-width="0.5" opacity="0.5"/>
    <path d="M 355.88,290.00 A 1367.24,1367.24 0 0,0 26.13,153.41" fill="none" stroke="#542ba4" stroke-width="0.5" opacity="0.5"/>
    <path d="M 327.28,327.28 A 1367.24,1367.24 0 0,0 44.12,110.00" fill="none" stroke="#542ba4" stroke-width="0.5" opacity="0.5"/>
    <path d="M 290.00,355.88 A 1367.24,1367.24 0 0,0 72.72,72.72" fill="none" stroke="#542ba4" stroke-width="0.5" opacity="0.5"/>
    <path d="M 246.59,373.87 A 1367.24,1367.24 0 0,0 110.00,44.12" fill="none" stroke="#542ba4" stroke-width="0.5" opacity="0.5"/>
    <path d="M 200.00,380.00 A 1367.24,1367.24 0 0,0 153.41,26.13" fill="none" stroke="#542ba4" stroke-width="0.5" opacity="0.5"/>
    <path d="M 153.41,373.87 A 1367.24,1367.24 0 0,0 200.00,20.00" fill="none" stroke="#542ba4" stroke-width="0.5" opacity="0.5"/>
    <path d="M 110.00,355.88 A 1367.24,1367.24 0 0,0 246.59,26.13" fill="none" stroke="#542ba4" stroke-width="0.5" opacity="0.5"/>
    <path d="M 72.72,327.28 A 1367.24,1367.24 0 0,0 290.00,44.12" fill="none" stroke="#542ba4" stroke-width="0.5" opacity="0.5"/>
    <path d="M 44.12,290.00 A 1367.24,1367.24 0 0,0 327.28,72.72" fill="none" stroke="#542ba4" stroke-width="0.5" opacity="0.5"/>
    <path d="M 26.13,246.59 A 1367.24,1367.24 0 0,0 355.88,110.00" fill="none" stroke="#542ba4" stroke-width="0.5" opacity="0.5"/>
    <path d="M 20.00,200.00 A 1367.24,1367.24 0 0,0 373.87,153.41" fill="none" stroke="#542ba4" stroke-width="0.5" opacity="0.5"/>
    <path d="M 26.13,153.41 A 1367.24,1367.24 0 0,0 380.00,200.00" fill="none" stroke="#542ba4" stroke-width="0.5" opacity="0.5"/>
    <path d="M 44.12,110.00 A 1367.24,1367.24 0 0,0 373.87,246.59" fill="none" stroke="#542ba4" stroke-width="0.5" opacity="0.5"/>
    <path d="M 72.72,72.72 A 1367.24,1367.24 0 0,0 355.88,290.00" fill="none" stroke="#542ba4" stroke-width="0.5" opacity="0.5"/>
    <path d="M 110.00,44.12 A 1367.24,1367.24 0 0,0 327.28,327.28" fill="none" stroke="#542ba4" stroke-width="0.5" opacity="0.5"/>
    <path d="M 153.41,26.13 A 1367.24,1367.24 0 0,0 290.00,355.88" fill="none" stroke="#542ba4" stroke-width="0.5" opacity="0.5"/>
    <path d="M 200.00,20.00 A 1367.24,1367.24 0 0,0 246.59,373.87" fill="none" stroke="#542ba4" stroke-width="0.5" opacity="0.5"/>
    <path d="M 246.59,26.13 A 1367.24,1367.24 0 0,0 200.00,380.00" fill="none" stroke="#542ba4" stroke-width="0.5" opacity="0.5"/>
    <path d="M 290.00,44.12 A 1367.24,1367.24 0 0,0 153.41,373.87" fill="none" stroke="#542ba4" stroke-width="0.5" opacity="0.5"/>
    <path d="M 327.28,72.72 A 1367.24,1367.24 0 0,0 110.00,355.88" fill="none" stroke="#542ba4" stroke-width="0.5" opacity="0.5"/>
    <path d="M 355.88,110.00 A 1367.24,1367.24 0 0,0 72.72,327.28" fill="none" stroke="#542ba4" stroke-width="0.5" opacity="0.5"/>
    <path d="M 373.87,153.41 A 1367.24,1367.24 0 0,0 44.12,290.00" fill="none" stroke="#542ba4" stroke-width="0.5" opacity="0.5"/>
  </g>

  <circle cx="200" cy="200" r="55" fill="none" stroke="#9093bf" stroke-width="1.5"/>
  <circle cx="200" cy="200" r="12" fill="none" stroke="#9093bf" stroke-width="1"/>
  <circle cx="200" cy="200" r="180" fill="none" stroke="#9093bf" stroke-width="2"/>


  <!-- SURFACES text - Cormorant Garamond Light 300 -->
  <g transform="translate(537.1428571428571,254.64285714285714) scale(0.17485714285714285,-0.17485714285714285)">
    <path d="M138 504Q138 462 158.5 432.5Q179 403 211.5 381.0Q244 359 280 338Q317 317 351.0 293.5Q385 270 407.5 237.5Q430 205 430 157Q430 111 407.5 72.5Q385 34 340.0 11.0Q295 -12 227 -12Q205 -12 183.5 -9.0Q162 -6 139.5 1.5Q117 9 91 22Q86 25 84.5 29.5Q83 34 82 41L67 171Q66 176 71.5 176.5Q77 177 78 173Q82 143 94.0 113.0Q106 83 126.5 58.0Q147 33 177.5 17.5Q208 2 249 2Q280 2 309.0 13.5Q338 25 356.5 51.0Q375 77 375 122Q375 171 353.5 203.5Q332 236 299.0 259.5Q266 283 229 304Q194 325 161.0 348.0Q128 371 107.5 402.5Q87 434 87 481Q87 533 113.0 567.5Q139 602 180.5 619.0Q222 636 267 636Q293 636 321.5 630.5Q350 625 381 612Q389 609 392.5 604.5Q396 600 396 595L405 489Q405 485 399.5 485.0Q394 485 393 489Q391 511 382.5 534.5Q374 558 357.5 578.0Q341 598 315.5 610.5Q290 623 254 623Q211 623 185.5 605.0Q160 587 149.0 560.0Q138 533 138 504Z" fill="#c9d1d9"/>
    <g transform="translate(681.0784313725491,0)"><path d="M572 520Q572 568 551.5 590.5Q531 613 487 613Q484 613 484.0 619.0Q484 625 487 625Q509 625 532.5 623.5Q556 622 584 622Q607 622 630.5 623.5Q654 625 673 625Q675 625 675.0 619.0Q675 613 673 613Q633 613 613.5 590.5Q594 568 594 520V234Q594 155 565.0 100.0Q536 45 483.5 16.0Q431 -13 361 -13Q287 -13 232.0 16.5Q177 46 147.0 99.5Q117 153 117 225V544Q117 573 110.5 587.5Q104 602 85.0 607.5Q66 613 28 613Q26 613 26.0 619.0Q26 625 28 625Q52 625 81.0 623.5Q110 622 143 622Q177 622 206.5 623.5Q236 625 258 625Q261 625 261.0 619.0Q261 613 258 613Q220 613 201.0 607.0Q182 601 176.0 586.0Q170 571 170 542V260Q170 142 225.0 79.0Q280 16 379 16Q471 16 521.5 74.0Q572 132 572 233Z" fill="#c9d1d9"/></g>
    <g transform="translate(1574.156862745098,0)"><path d="M560 0Q543 0 504.0 39.0Q465 78 410.0 150.5Q355 223 287 322L335 337Q421 216 481.0 144.5Q541 73 587.0 42.5Q633 12 676 12Q679 12 679.0 6.0Q679 0 676 0Q631 0 602.5 0.0Q574 0 560 0ZM299 628Q376 628 416.5 591.0Q457 554 457 495Q457 442 426.0 399.0Q395 356 343.5 331.0Q292 306 230 306Q221 306 209.0 307.0Q197 308 187 309V81Q187 52 193.0 37.0Q199 22 218.5 17.0Q238 12 276 12Q279 12 279.0 6.0Q279 0 276 0Q252 0 223.5 1.0Q195 2 160 2Q128 2 98.0 1.0Q68 0 44 0Q42 0 42.0 6.0Q42 12 44 12Q82 12 101.5 17.0Q121 22 128.0 37.0Q135 52 135 81V544Q135 573 128.5 587.5Q122 602 103.0 607.5Q84 613 46 613Q43 613 43.0 619.0Q43 625 46 625Q69 625 98.5 623.5Q128 622 160 622Q191 622 232.0 625.0Q273 628 299 628ZM401 468Q401 522 383.5 554.0Q366 586 333.5 600.5Q301 615 255 615Q219 615 203.0 602.0Q187 589 187 542V332Q201 331 217.5 330.0Q234 329 247 329Q333 329 367.0 365.0Q401 401 401 468Z" fill="#c9d1d9"/></g>
    <g transform="translate(2437.235294117647,0)"><path d="M44 0Q42 0 42.0 6.0Q42 12 44 12Q82 12 101.0 17.0Q120 22 126.5 37.0Q133 52 133 81V544Q133 573 126.5 587.5Q120 602 101.0 607.5Q82 613 44 613Q42 613 42.0 619.0Q42 625 44 625H440Q449 625 449 616L451 495Q451 492 445.5 492.0Q440 492 440 495Q440 547 413.0 576.5Q386 606 342 606H273Q219 606 202.5 594.0Q186 582 186 543V85Q186 55 194.5 39.5Q203 24 230.0 18.0Q257 12 311 12Q314 12 314.0 6.0Q314 0 311 0Q279 0 241.5 1.0Q204 2 160 2Q128 2 98.0 1.0Q68 0 44 0ZM389 223Q389 268 367.5 286.0Q346 304 291 304H161V323H295Q347 323 367.5 339.0Q388 355 388 392Q388 394 394.0 394.0Q400 394 400 392Q400 363 399.5 347.0Q399 331 399 313Q399 291 400.0 269.5Q401 248 401 223Q401 221 395.0 221.0Q389 221 389 223Z" fill="#c9d1d9"/></g>
    <g transform="translate(3139.313725490196,0)"><path d="M200 287 209 305H468L475 287ZM694 12Q698 12 698.0 6.0Q698 0 694 0Q666 0 636.5 2.0Q607 4 580 4Q549 4 526.5 2.0Q504 0 477 0Q473 0 473.0 6.0Q473 12 477 12Q533 12 547.5 27.0Q562 42 543 84L317 570L336 587L143 123Q118 62 139.0 37.0Q160 12 228 12Q233 12 233.0 6.0Q233 0 228 0Q198 0 173.0 2.0Q148 4 110 4Q75 4 53.5 2.0Q32 0 2 0Q-2 0 -2.0 6.0Q-2 12 2 12Q29 12 49.0 22.0Q69 32 86.5 58.0Q104 84 124 132L333 635Q335 638 339.5 638.0Q344 638 345 635L577 137Q600 87 618.0 59.5Q636 32 654.0 22.0Q672 12 694 12Z" fill="#c9d1d9"/></g>
    <g transform="translate(4033.3921568627447,0)"><path d="M407 636Q452 636 484.5 632.0Q517 628 545.0 618.5Q573 609 604 593Q610 589 611.5 586.5Q613 584 614 571L626 457Q626 455 620.5 453.5Q615 452 614 456Q592 539 541.5 580.5Q491 622 407 622Q318 622 252.0 585.0Q186 548 149.5 480.0Q113 412 113 320Q113 255 136.5 197.0Q160 139 201.5 95.0Q243 51 296.0 26.0Q349 1 409 1Q495 1 547.0 42.5Q599 84 621 164Q622 167 627.5 166.0Q633 165 633 163L625 57Q624 45 622.0 42.0Q620 39 614 35Q561 7 515.5 -3.0Q470 -13 408 -13Q303 -13 222.0 28.5Q141 70 95.0 145.0Q49 220 49 319Q49 391 75.5 449.0Q102 507 150.5 549.0Q199 591 264.0 613.5Q329 636 407 636Z" fill="#c9d1d9"/></g>
    <g transform="translate(4916.470588235294,0)"><path d="M457 0H44Q42 0 42.0 6.0Q42 12 44 12Q82 12 101.0 17.0Q120 22 126.5 37.0Q133 52 133 81V544Q133 573 126.5 587.5Q120 602 101.0 607.5Q82 613 44 613Q42 613 42.0 619.0Q42 625 44 625H440Q449 625 449 616L451 495Q451 492 445.5 492.0Q440 492 440 495Q440 547 413.0 576.5Q386 606 342 606H273Q236 606 217.5 601.0Q199 596 192.5 581.5Q186 567 186 538V85Q186 57 192.5 43.0Q199 29 217.5 24.0Q236 19 273 19H365Q405 19 434.0 54.0Q463 89 470 146Q470 149 476.0 148.5Q482 148 482 145Q478 119 475.5 82.5Q473 46 473 15Q473 0 457 0ZM401 235Q401 280 382.0 298.0Q363 316 315 316H161V335H318Q364 335 382.0 350.5Q400 366 400 404Q400 406 406.0 406.0Q412 406 412 404Q412 375 411.5 359.0Q411 343 411 325Q411 303 412.0 281.5Q413 260 413 235Q413 233 407.0 233.0Q401 233 401 235Z" fill="#c9d1d9"/></g>
    <g transform="translate(5645.549019607843,0)"><path d="M138 504Q138 462 158.5 432.5Q179 403 211.5 381.0Q244 359 280 338Q317 317 351.0 293.5Q385 270 407.5 237.5Q430 205 430 157Q430 111 407.5 72.5Q385 34 340.0 11.0Q295 -12 227 -12Q205 -12 183.5 -9.0Q162 -6 139.5 1.5Q117 9 91 22Q86 25 84.5 29.5Q83 34 82 41L67 171Q66 176 71.5 176.5Q77 177 78 173Q82 143 94.0 113.0Q106 83 126.5 58.0Q147 33 177.5 17.5Q208 2 249 2Q280 2 309.0 13.5Q338 25 356.5 51.0Q375 77 375 122Q375 171 353.5 203.5Q332 236 299.0 259.5Q266 283 229 304Q194 325 161.0 348.0Q128 371 107.5 402.5Q87 434 87 481Q87 533 113.0 567.5Q139 602 180.5 619.0Q222 636 267 636Q293 636 321.5 630.5Q350 625 381 612Q389 609 392.5 604.5Q396 600 396 595L405 489Q405 485 399.5 485.0Q394 485 393 489Q391 511 382.5 534.5Q374 558 357.5 578.0Q341 598 315.5 610.5Q290 623 254 623Q211 623 185.5 605.0Q160 587 149.0 560.0Q138 533 138 504Z" fill="#c9d1d9"/></g>
  </g>
</svg>
