<?xml version="1.0" encoding="UTF-8"?>
<svg xmlns="http://www.w3.org/2000/svg" viewBox="0 0 400 400" width="400" height="400">
  <defs>
    <clipPath id="disk-clip">
      <circle cx="200" cy="200" r="180"/>
    </clipPath>
  </defs>

  <g clip-path="url(#disk-clip)">
    <path d="M 380.00,200.00 A 83.94,83.94 0 0,0 315.70,337.89" fill="none" stroke="#a0c4f0" stroke-width="0.4" opacity="0.3"/>
    <path d="M 377.27,231.26 A 83.94,83.94 0 0,0 290.00,355.88" fill="none" stroke="#a0c4f0" stroke-width="0.4" opacity="0.3"/>
    <path d="M 369.14,261.56 A 83.94,83.94 0 0,0 261.56,369.14" fill="none" stroke="#a0c4f0" stroke-width="0.4" opacity="0.3"/>
    <path d="M 355.88,290.00 A 83.94,83.94 0 0,0 231.26,377.27" fill="none" stroke="#a0c4f0" stroke-width="0.4" opacity="0.3"/>
    <path d="M 337.89,315.70 A 83.94,83.94 0 0,0 200.00,380.00" fill="none" stroke="#a0c4f0" stroke-width="0.4" opacity="0.3"/>
    <path d="M 315.70,337.89 A 83.94,83.94 0 0,0 168.74,377.27" fill="none" stroke="#a0c4f0" stroke-width="0.4" opacity="0.3"/>
    <path d="M 290.00,355.88 A 83.94,83.94 0 0,0 138.44,369.14" fill="none" stroke="#a0c4f0" stroke-width="0.4" opacity="0.3"/>
    <path d="M 261.56,369.14 A 83.94,83.94 0 0,0 110.00,355.88" fill="none" stroke="#a0c4f0" stroke-width="0.4" opacity="0.3"/>
    <path d="M 231.26,377.27 A 83.94,83.94 0 0,0 84.30,337.89" fill="none" stroke="#a0c4f0" stroke-width="0.4" opacity="0.3"/>
    <path d="M 200.00,380.00 A 83.94,83.94 0 0,0 62.11,315.70" fill="none" stroke="#a0c4f0" stroke-width="0.4" opacity="0.3"/>
    <path d="M 168.74,377.27 A 83.94,83.94 0 0,0 44.12,290.00" fill="none" stroke="#a0c4f0" stroke-width="0.4" opacity="0.3"/>
    <path d="M 138.44,369.14 A 83.94,83.94 0 0,0 30.86,261.56" fill="none" stroke="#a0c4f0" stroke-width="0.4" opacity="0.3"/>
    <path d="M 110.00,355.88 A 83.94,83.94 0 0,0 22.73,231.26" fill="none" stroke="#a0c4f0" stroke-width="0.4" opacity="0.3"/>
    <path d="M 84.30,337.89 A 83.94,83.94 0 0,0 20.00,200.00" fill="none" stroke="#a0c4f0" stroke-width="0.4" opacity="0.3"/>
    <path d="M 62.11,315.70 A 83.94,83.94 0 0,0 22.73,168.74" fill="none" stroke="#a0c4f0" stroke-width="0.4" opacity="0.3"/>
    <path d="M 44.12,290.00 A 83.94,83.94 0 0,0 30.86,138.44" fill="none" stroke="#a0c4f0" stroke-width="0.4" opacity="0.3"/>
    <path d="M 30.86,261.56 A 83.94,83.94 0 0,0 44.12,110.00" fill="none" stroke="#a0c4f0" stroke-width="0.4" opacity="0.3"/>
    <path d="M 22.73,231.26 A 83.94,83.94 0 0,0 62.11,84.30" fill="none" stroke="#a0c4f0" stroke-width="0.4" opacity="0.3"/>
    <path d="M 20.00,200.00 A 83.94,83.94 0 0,0 84.30,62.11" fill="none" stroke="#a0c4f0" stroke-width="0.4" opacity="0.3"/>
    <path d="M 22.73,168.74 A 83.94,83.94 0 0,0 110.00,44.12" fill="none" stroke="#a0c4f0" stroke-width="0.4" opacity="0.3"/>
    <path d="M 30.86,138.44 A 83.94,83.94 0 0,0 138.44,30.86" fill="none" stroke="#a0c4f0" stroke-width="0.4" opacity="0.3"/>
    <path d="M 44.12,110.00 A 83.94,83.94 0 0,0 168.74,22.73" fill="none" stroke="#a0c4f0" stroke-width="0.4" opacity="0.3"/>
    <path d="M 62.11,84.30 A 83.94,83.94 0 0,0 200.00,20.00" fill="none" stroke="#a0c4f0" stroke-width="0.4" opacity="0.3"/>
    <path d="M 84.30,62.11 A 83.94,83.94 0 0,0 231.26,22.73" fill="none" stroke="#a0c4f0" stroke-width="0.4" opacity="0.3"/>
    <path d="M 110.00,44.12 A 83.94,83.94 0 0,0 261.56,30.86" fill="none" stroke="#a0c4f0" stroke-width="0.4" opacity="0.3"/>
    <path d="M 138.44,30.86 A 83.94,83.94 0 0,0 290.00,44.12" fill="none" stroke="#a0c4f0" stroke-width="0.4" opacity="0.3"/>
    <path d="M 168.74,22.73 A 83.94,83.94 0 0,0 315.70,62.11" fill="none" stroke="#a0c4f0" stroke-width="0.4" opacity="0.3"/>
    <path d="M 200.00,20.00 A 83.94,83.94 0 0,0 337.89,84.30" fill="none" stroke="#a0c4f0" stroke-width="0.4" opacity="0.3"/>
    <path d="M 231.26,22.73 A 83.94,83.94 0 0,0 355.88,110.00" fill="none" stroke="#a0c4f0" stroke-width="0.4" opacity="0.3"/>
    <path d="M 261.56,30.86 A 83.94,83.94 0 0,0 369.14,138.44" fill="none" stroke="#a0c4f0" stroke-width="0.4" opacity="0.3"/>
    <path d="M 290.00,44.12 A 83.94,83.94 0 0,0 377.27,168.74" fill="none" stroke="#a0c4f0" stroke-width="0.4" opacity="0.3"/>
    <path d="M 315.70,62.11 A 83.94,83.94 0 0,0 380.00,200.00" fill="none" stroke="#a0c4f0" stroke-width="0.4" opacity="0.3"/>
    <path d="M 337.89,84.30 A 83.94,83.94 0 0,0 377.27,231.26" fill="none" stroke="#a0c4f0" stroke-width="0.4" opacity="0.3"/>
    <path d="M 355.88,110.00 A 83.94,83.94 0 0,0 369.14,261.56" fill="none" stroke="#a0c4f0" stroke-width="0.4" opacity="0.3"/>
    <path d="M 369.14,138.44 A 83.94,83.94 0 0,0 355.88,290.00" fill="none" stroke="#a0c4f0" stroke-width="0.4" opacity="0.3"/>
    <path d="M 377.27,168.74 A 83.94,83.94 0 0,0 337.89,315.70" fill="none" stroke="#a0c4f0" stroke-width="0.4" opacity="0.3"/>
    <path d="M 380.00,200.00 A 257.07,257.07 0 0,0 138.44,369.14" fill="none" stroke="#a0c4f0" stroke-width="0.4" opacity="0.3"/>
    <path d="M 377.27,231.26 A 257.07,257.07 0 0,0 110.00,355.88" fill="none" stroke="#a0c4f0" stroke-width="0.4" opacity="0.3"/>
    <path d="M 369.14,261.56 A 257.07,257.07 0 0,0 84.30,337.89" fill="none" stroke="#a0c4f0" stroke-width="0.4" opacity="0.3"/>
    <path d="M 355.88,290.00 A 257.07,257.07 0 0,0 62.11,315.70" fill="none" stroke="#a0c4f0" stroke-width="0.4" opacity="0.3"/>
    <path d="M 337.89,315.70 A 257.07,257.07 0 0,0 44.12,290.00" fill="none" stroke="#a0c4f0" stroke-width="0.4" opacity="0.3"/>
    <path d="M 315.70,337.89 A 257.07,257.07 0 0,0 30.86,261.56" fill="none" stroke="#a0c4f0" stroke-width="0.4" opacity="0.3"/>
    <path d="M 290.00,355.88 A 257.07,257.07 0 0,0 22.73,231.26" fill="none" stroke="#a0c4f0" stroke-width="0.4" opacity="0.3"/>
    <path d="M 261.56,369.14 A 257.07,257.07 0 0,0 20.00,200.00" fill="none" stroke="#a0c4f0" stroke-width="0.4" opacity="0.3"/>
    <path d="M 231.26,377.27 A 257.07,257.07 0 0,0 22.73,168.74" fill="none" stroke="#a0c4f0" stroke-width="0.4" opacity="0.3"/>
    <path d="M 200.00,380.00 A 257.07,257.07 0 0,0 30.86,138.44" fill="none" stroke="#a0c4f0" stroke-width="0.4" opacity="0.3"/>
    <path d="M 168.74,377.27 A 257.07,257.07 0 0,0 44.12,110.00" fill="none" stroke="#a0c4f0" stroke-width="0.4" opacity="0.3"/>
    <path d="M 138.44,369.14 A 257.07,257.07 0 0,0 62.11,84.30" fill="none" stroke="#a0c4f0" stroke-width="0.4" opacity="0.3"/>
    <path d="M 110.00,355.88 A 257.07,257.07 0 0,0 84.30,62.11" fill="none" stroke="#a0c4f0" stroke-width="0.4" opacity="0.3"/>
    <path d="M 84.30,337.89 A 257.07,257.07 0 0,0 110.00,44.12" fill="none" stroke="#a0c4f0" stroke-width="0.4" opacity="0.3"/>
    <path d="M 62.11,315.70 A 257.07,257.07 0 0,0 138.44,30.86" fill="none" stroke="#a0c4f0" stroke-width="0.4" opacity="0.3"/>
    <path d="M 44.12,290.00 A 257.07,257.07 0 0,0 168.74,22.73" fill="none" stroke="#a0c4f0" stroke-width="0.4" opacity="0.3"/>
    <path d="M 30.86,261.56 A 257.07,257.07 0 0,0 200.00,20.00" fill="none" stroke="#a0c4f0" stroke-width="0.4" opacity="0.3"/>
    <path d="M 22.73,231.26 A 257.07,257.07 0 0,0 231.26,22.73" fill="none" stroke="#a0c4f0" stroke-width="0.4" opacity="0.3"/>
    <path d="M 20.00,200.00 A 257.07,257.07 0 0,0 261.56,30.86" fill="none" stroke="#a0c4f0" stroke-width="0.4" opacity="0.3"/>
    <path d="M 22.73,168.74 A 257.07,257.07 0 0,0 290.00,44.12" fill="none" stroke="#a0c4f0" stroke-width="0.4" opacity="0.3"/>
    <path d="M 30.86,138.44 A 257.07,257.07 0 0,0 315.70,62.11" fill="none" stroke="#a0c4f0" stroke-width="0.4" opacity="0.3"/>
    <path d="M 44.12,110.00 A 257.07,257.07 0 0,0 337.89,84.30" fill="none" stroke="#a0c4f0" stroke-width="0.4" opacity="0.3"/>
    <path d="M 62.11,84.30 A 257.07,257.07 0 0,0 355.88,110.00" fill="none" stroke="#a0c4f0" stroke-width="0.4" opacity="0.3"/>
    <path d="M 84.30,62.11 A 257.07,257.07 0 0,0 369.14,138.44" fill="none" stroke="#a0c4f0" stroke-width="0.4" opacity="0.3"/>
    <path d="M 110.00,44.12 A 257.07,257.07 0 0,0 377.27,168.74" fill="none" stroke="#a0c4f0" stroke-width="0.4" opacity="0.3"/>
    <path d="M 138.44,30.86 A 257.07,257.07 0 0,0 380.00,200.00" fill="none" stroke="#a0c4f0" stroke-width="0.4" opacity="0.3"/>
    <path d="M 168.74,22.73 A 257.07,257.07 0 0,0 377.27,231.26" fill="none" stroke="#a0c4f0" stroke-width="0.4" opacity="0.3"/>
    <path d="M 200.00,20.00 A 257.07,257.07 0 0,0 369.14,261.56" fill="none" stroke="#a0c4f0" stroke-width="0.4" opacity="0.3"/>
    <path d="M 231.26,22.73 A 257.07,257.07 0 0,0 355.88,290.00" fill="none" stroke="#a0c4f0" stroke-width="0.4" opacity="0.3"/>
    <path d="M 261.56,30.86 A 257.07,257.07 0 0,0 337.89,315.70" fill="none" stroke="#a0c4f0" stroke-width="0.4" opacity="0.3"/>
    <path d="M 290.00,44.12 A 257.07,257.07 0 0,0 315.70,337.89" fill="none" stroke="#a0c4f0" stroke-width="0.4" opacity="0.3"/>
    <path d="M 315.70,62.11 A 257.07,257.07 0 0,0 290.00,355.88" fill="none" stroke="#a0c4f0" stroke-width="0.4" opacity="0.3"/>
    <path d="M 337.89,84.30 A 257.07,257.07 0 0,0 261.56,369.14" fill="none" stroke="#a0c4f0" stroke-width="0.4" opacity="0.3"/>
    <path d="M 355.88,110.00 A 257.07,257.07 0 0,0 231.26,377.27" fill="none" stroke="#a0c4f0" stroke-width="0.4" opacity="0.3"/>
    <path d="M 369.14,138.44 A 257.07,257.07 0 0,0 200.00,380.00" fill="none" stroke="#a0c4f0" stroke-width="0.4" opacity="0.3"/>
    <path d="M 377.27,168.74 A 257.07,257.07 0 0,0 168.74,377.27" fill="none" stroke="#a0c4f0" stroke-width="0.4" opacity="0.3"/>
    <path d="M 380.00,200.00 A 2057.41,2057.41 0 0,0 22.73,231.26" fill="none" stroke="#2b8cdc" stroke-width="0.2" opacity="0.8"/>
    <path d="M 377.27,231.26 A 2057.41,2057.41 0 0,0 20.00,200.00" fill="none" stroke="#2b8cdc" stroke-width="0.2" opacity="0.8"/>
    <path d="M 369.14,261.56 A 2057.41,2057.41 0 0,0 22.73,168.74" fill="none" stroke="#2b8cdc" stroke-width="0.2" opacity="0.8"/>
    <path d="M 355.88,290.00 A 2057.41,2057.41 0 0,0 30.86,138.44" fill="none" stroke="#2b8cdc" stroke-width="0.2" opacity="0.8"/>
    <path d="M 337.89,315.70 A 2057.41,2057.41 0 0,0 44.12,110.00" fill="none" stroke="#2b8cdc" stroke-width="0.2" opacity="0.8"/>
    <path d="M 315.70,337.89 A 2057.41,2057.41 0 0,0 62.11,84.30" fill="none" stroke="#2b8cdc" stroke-width="0.2" opacity="0.8"/>
    <path d="M 290.00,355.88 A 2057.41,2057.41 0 0,0 84.30,62.11" fill="none" stroke="#2b8cdc" stroke-width="0.2" opacity="0.8"/>
    <path d="M 261.56,369.14 A 2057.41,2057.41 0 0,0 110.00,44.12" fill="none" stroke="#2b8cdc" stroke-width="0.2" opacity="0.8"/>
    <path d="M 231.26,377.27 A 2057.41,2057.41 0 0,0 138.44,30.86" fill="none" stroke="#2b8cdc" stroke-width="0.2" opacity="0.8"/>
    <path d="M 200.00,380.00 A 2057.41,2057.41 0 0,0 168.74,22.73" fill="none" stroke="#2b8cdc" stroke-width="0.2" opacity="0.8"/>
    <path d="M 168.74,377.27 A 2057.41,2057.41 0 0,0 200.00,20.00" fill="none" stroke="#2b8cdc" stroke-width="0.2" opacity="0.8"/>
    <path d="M 138.44,369.14 A 2057.41,2057.41 0 0,0 231.26,22.73" fill="none" stroke="#2b8cdc" stroke-width="0.2" opacity="0.8"/>
    <path d="M 110.00,355.88 A 2057.41,2057.41 0 0,0 261.56,30.86" fill="none" stroke="#2b8cdc" stroke-width="0.2" opacity="0.8"/>
    <path d="M 84.30,337.89 A 2057.41,2057.41 0 0,0 290.00,44.12" fill="none" stroke="#2b8cdc" stroke-width="0.2" opacity="0.8"/>
    <path d="M 62.11,315.70 A 2057.41,2057.41 0 0,0 315.70,62.11" fill="none" stroke="#2b8cdc" stroke-width="0.2" opacity="0.8"/>
    <path d="M 44.12,290.00 A 2057.41,2057.41 0 0,0 337.89,84.30" fill="none" stroke="#2b8cdc" stroke-width="0.2" opacity="0.8"/>
    <path d="M 30.86,261.56 A 2057.41,2057.41 0 0,0 355.88,110.00" fill="none" stroke="#2b8cdc" stroke-width="0.2" opacity="0.8"/>
    <path d="M 22.73,231.26 A 2057.41,2057.41 0 0,0 369.14,138.44" fill="none" stroke="#2b8cdc" stroke-width="0.2" opacity="0.8"/>
    <path d="M 20.00,200.00 A 2057.41,2057.41 0 0,0 377.27,168.74" fill="none" stroke="#2b8cdc" stroke-width="0.2" opacity="0.8"/>
    <path d="M 22.73,168.74 A 2057.41,2057.41 0 0,0 380.00,200.00" fill="none" stroke="#2b8cdc" stroke-width="0.2" opacity="0.8"/>
    <path d="M 30.86,138.44 A 2057.41,2057.41 0 0,0 377.27,231.26" fill="none" stroke="#2b8cdc" stroke-width="0.2" opacity="0.8"/>
    <path d="M 44.12,110.00 A 2057.41,2057.41 0 0,0 369.14,261.56" fill="none" stroke="#2b8cdc" stroke-width="0.2" opacity="0.8"/>
    <path d="M 62.11,84.30 A 2057.41,2057.41 0 0,0 355.88,290.00" fill="none" stroke="#2b8cdc" stroke-width="0.2" opacity="0.8"/>
    <path d="M 84.30,62.11 A 2057.41,2057.41 0 0,0 337.89,315.70" fill="none" stroke="#2b8cdc" stroke-width="0.2" opacity="0.8"/>
    <path d="M 110.00,44.12 A 2057.41,2057.41 0 0,0 315.70,337.89" fill="none" stroke="#2b8cdc" stroke-width="0.2" opacity="0.8"/>
    <path d="M 138.44,30.86 A 2057.41,2057.41 0 0,0 290.00,355.88" fill="none" stroke="#2b8cdc" stroke-width="0.2" opacity="0.8"/>
    <path d="M 168.74,22.73 A 2057.41,2057.41 0 0,0 261.56,369.14" fill="none" stroke="#2b8cdc" stroke-width="0.2" opacity="0.8"/>
    <path d="M 200.00,20.00 A 2057.41,2057.41 0 0,0 231.26,377.27" fill="none" stroke="#2b8cdc" stroke-width="0.2" opacity="0.8"/>
    <path d="M 231.26,22.73 A 2057.41,2057.41 0 0,0 200.00,380.00" fill="none" stroke="#2b8cdc" stroke-width="0.2" opacity="0.8"/>
    <path d="M 261.56,30.86 A 2057.41,2057.41 0 0,0 168.74,377.27" fill="none" stroke="#2b8cdc" stroke-width="0.2" opacity="0.8"/>
    <path d="M 290.00,44.12 A 2057.41,2057.41 0 0,0 138.44,369.14" fill="none" stroke="#2b8cdc" stroke-width="0.2" opacity="0.8"/>
    <path d="M 315.70,62.11 A 2057.41,2057.41 0 0,0 110.00,355.88" fill="none" stroke="#2b8cdc" stroke-width="0.2" opacity="0.8"/>
    <path d="M 337.89,84.30 A 2057.41,2057.41 0 0,0 84.30,337.89" fill="none" stroke="#2b8cdc" stroke-width="0.2" opacity="0.8"/>
    <path d="M 355.88,110.00 A 2057.41,2057.41 0 0,0 62.11,315.70" fill="none" stroke="#2b8cdc" stroke-width="0.2" opacity="0.8"/>
    <path d="M 369.14,138.44 A 2057.41,2057.41 0 0,0 44.12,290.00" fill="none" stroke="#2b8cdc" stroke-width="0.2" opacity="0.8"/>
    <path d="M 377.27,168.74 A 2057.41,2057.41 0 0,0 30.86,261.56" fill="none" stroke="#2b8cdc" stroke-width="0.2" opacity="0.8"/>
    <path d="M 380.00,200.00 A 74.56,74.56 0 0,0 327.28,327.28" fill="none" stroke="#88b8e8" stroke-width="1.0" opacity="0.5"/>
    <path d="M 373.87,246.59 A 74.56,74.56 0 0,0 290.00,355.88" fill="none" stroke="#88b8e8" stroke-width="1.0" opacity="0.5"/>
    <path d="M 355.88,290.00 A 74.56,74.56 0 0,0 246.59,373.87" fill="none" stroke="#88b8e8" stroke-width="1.0" opacity="0.5"/>
    <path d="M 327.28,327.28 A 74.56,74.56 0 0,0 200.00,380.00" fill="none" stroke="#88b8e8" stroke-width="1.0" opacity="0.5"/>
    <path d="M 290.00,355.88 A 74.56,74.56 0 0,0 153.41,373.87" fill="none" stroke="#88b8e8" stroke-width="1.0" opacity="0.5"/>
    <path d="M 246.59,373.87 A 74.56,74.56 0 0,0 110.00,355.88" fill="none" stroke="#88b8e8" stroke-width="1.0" opacity="0.5"/>
    <path d="M 200.00,380.00 A 74.56,74.56 0 0,0 72.72,327.28" fill="none" stroke="#88b8e8" stroke-width="1.0" opacity="0.5"/>
    <path d="M 153.41,373.87 A 74.56,74.56 0 0,0 44.12,290.00" fill="none" stroke="#88b8e8" stroke-width="1.0" opacity="0.5"/>
    <path d="M 110.00,355.88 A 74.56,74.56 0 0,0 26.13,246.59" fill="none" stroke="#88b8e8" stroke-width="1.0" opacity="0.5"/>
    <path d="M 72.72,327.28 A 74.56,74.56 0 0,0 20.00,200.00" fill="none" stroke="#88b8e8" stroke-width="1.0" opacity="0.5"/>
    <path d="M 44.12,290.00 A 74.56,74.56 0 0,0 26.13,153.41" fill="none" stroke="#88b8e8" stroke-width="1.0" opacity="0.5"/>
    <path d="M 26.13,246.59 A 74.56,74.56 0 0,0 44.12,110.00" fill="none" stroke="#88b8e8" stroke-width="1.0" opacity="0.5"/>
    <path d="M 20.00,200.00 A 74.56,74.56 0 0,0 72.72,72.72" fill="none" stroke="#88b8e8" stroke-width="1.0" opacity="0.5"/>
    <path d="M 26.13,153.41 A 74.56,74.56 0 0,0 110.00,44.12" fill="none" stroke="#88b8e8" stroke-width="1.0" opacity="0.5"/>
    <path d="M 44.12,110.00 A 74.56,74.56 0 0,0 153.41,26.13" fill="none" stroke="#88b8e8" stroke-width="1.0" opacity="0.5"/>
    <path d="M 72.72,72.72 A 74.56,74.56 0 0,0 200.00,20.00" fill="none" stroke="#88b8e8" stroke-width="1.0" opacity="0.5"/>
    <path d="M 110.00,44.12 A 74.56,74.56 0 0,0 246.59,26.13" fill="none" stroke="#88b8e8" stroke-width="1.0" opacity="0.5"/>
    <path d="M 153.41,26.13 A 74.56,74.56 0 0,0 290.00,44.12" fill="none" stroke="#88b8e8" stroke-width="1.0" opacity="0.5"/>
    <path d="M 200.00,20.00 A 74.56,74.56 0 0,0 327.28,72.72" fill="none" stroke="#88b8e8" stroke-width="1.0" opacity="0.5"/>
    <path d="M 246.59,26.13 A 74.56,74.56 0 0,0 355.88,110.00" fill="none" stroke="#88b8e8" stroke-width="1.0" opacity="0.5"/>
    <path d="M 290.00,44.12 A 74.56,74.56 0 0,0 373.87,153.41" fill="none" stroke="#88b8e8" stroke-width="1.0" opacity="0.5"/>
    <path d="M 327.28,72.72 A 74.56,74.56 0 0,0 380.00,200.00" fill="none" stroke="#88b8e8" stroke-width="1.0" opacity="0.5"/>
    <path d="M 355.88,110.00 A 74.56,74.56 0 0,0 373.87,246.59" fill="none" stroke="#88b8e8" stroke-width="1.0" opacity="0.5"/>
    <path d="M 373.87,153.41 A 74.56,74.56 0 0,0 355.88,290.00" fill="none" stroke="#88b8e8" stroke-width="1.0" opacity="0.5"/>
    <path d="M 380.00,200.00 A 138.12,138.12 0 0,0 246.59,373.87" fill="none" stroke="#88b8e8" stroke-width="0.85" opacity="0.65"/>
    <path d="M 373.87,246.59 A 138.12,138.12 0 0,0 200.00,380.00" fill="none" stroke="#88b8e8" stroke-width="0.85" opacity="0.65"/>
    <path d="M 355.88,290.00 A 138.12,138.12 0 0,0 153.41,373.87" fill="none" stroke="#88b8e8" stroke-width="0.85" opacity="0.65"/>
    <path d="M 327.28,327.28 A 138.12,138.12 0 0,0 110.00,355.88" fill="none" stroke="#88b8e8" stroke-width="0.85" opacity="0.65"/>
    <path d="M 290.00,355.88 A 138.12,138.12 0 0,0 72.72,327.28" fill="none" stroke="#88b8e8" stroke-width="0.85" opacity="0.65"/>
    <path d="M 246.59,373.87 A 138.12,138.12 0 0,0 44.12,290.00" fill="none" stroke="#88b8e8" stroke-width="0.85" opacity="0.65"/>
    <path d="M 200.00,380.00 A 138.12,138.12 0 0,0 26.13,246.59" fill="none" stroke="#88b8e8" stroke-width="0.85" opacity="0.65"/>
    <path d="M 153.41,373.87 A 138.12,138.12 0 0,0 20.00,200.00" fill="none" stroke="#88b8e8" stroke-width="0.85" opacity="0.65"/>
    <path d="M 110.00,355.88 A 138.12,138.12 0 0,0 26.13,153.41" fill="none" stroke="#88b8e8" stroke-width="0.85" opacity="0.65"/>
    <path d="M 72.72,327.28 A 138.12,138.12 0 0,0 44.12,110.00" fill="none" stroke="#88b8e8" stroke-width="0.85" opacity="0.65"/>
    <path d="M 44.12,290.00 A 138.12,138.12 0 0,0 72.72,72.72" fill="none" stroke="#88b8e8" stroke-width="0.85" opacity="0.65"/>
    <path d="M 26.13,246.59 A 138.12,138.12 0 0,0 110.00,44.12" fill="none" stroke="#88b8e8" stroke-width="0.85" opacity="0.65"/>
    <path d="M 20.00,200.00 A 138.12,138.12 0 0,0 153.41,26.13" fill="none" stroke="#88b8e8" stroke-width="0.85" opacity="0.65"/>
    <path d="M 26.13,153.41 A 138.12,138.12 0 0,0 200.00,20.00" fill="none" stroke="#88b8e8" stroke-width="0.85" opacity="0.65"/>
    <path d="M 44.12,110.00 A 138.12,138.12 0 0,0 246.59,26.13" fill="none" stroke="#88b8e8" stroke-width="0.85" opacity="0.65"/>
    <path d="M 72.72,72.72 A 138.12,138.12 0 0,0 290.00,44.12" fill="none" stroke="#88b8e8" stroke-width="0.85" opacity="0.65"/>
    <path d="M 110.00,44.12 A 138.12,138.12 0 0,0 327.28,72.72" fill="none" stroke="#88b8e8" stroke-width="0.85" opacity="0.65"/>
    <path d="M 153.41,26.13 A 138.12,138.12 0 0,0 355.88,110.00" fill="none" stroke="#88b8e8" stroke-width="0.85" opacity="0.65"/>
    <path d="M 200.00,20.00 A 138.12,138.12 0 0,0 373.87,153.41" fill="none" stroke="#88b8e8" stroke-width="0.85" opacity="0.65"/>
    <path d="M 246.59,26.13 A 138.12,138.12 0 0,0 380.00,200.00" fill="none" stroke="#88b8e8" stroke-width="0.85" opacity="0.65"/>
    <path d="M 290.00,44.12 A 138.12,138.12 0 0,0 373.87,246.59" fill="none" stroke="#88b8e8" stroke-width="0.85" opacity="0.65"/>
    <path d="M 327.28,72.72 A 138.12,138.12 0 0,0 355.88,290.00" fill="none" stroke="#88b8e8" stroke-width="0.85" opacity="0.65"/>
    <path d="M 355.88,110.00 A 138.12,138.12 0 0,0 327.28,327.28" fill="none" stroke="#88b8e8" stroke-width="0.85" opacity="0.65"/>
    <path d="M 373.87,153.41 A 138.12,138.12 0 0,0 290.00,355.88" fill="none" stroke="#88b8e8" stroke-width="0.85" opacity="0.65"/>
    <path d="M 380.00,200.00 A 234.58,234.58 0 0,0 153.41,373.87" fill="none" stroke="#90c0f0" stroke-width="0.7" opacity="0.5"/>
    <path d="M 373.87,246.59 A 234.58,234.58 0 0,0 110.00,355.88" fill="none" stroke="#90c0f0" stroke-width="0.7" opacity="0.5"/>
    <path d="M 355.88,290.00 A 234.58,234.58 0 0,0 72.72,327.28" fill="none" stroke="#90c0f0" stroke-width="0.7" opacity="0.5"/>
    <path d="M 327.28,327.28 A 234.58,234.58 0 0,0 44.12,290.00" fill="none" stroke="#90c0f0" stroke-width="0.7" opacity="0.5"/>
    <path d="M 290.00,355.88 A 234.58,234.58 0 0,0 26.13,246.59" fill="none" stroke="#90c0f0" stroke-width="0.7" opacity="0.5"/>
    <path d="M 246.59,373.87 A 234.58,234.58 0 0,0 20.00,200.00" fill="none" stroke="#90c0f0" stroke-width="0.7" opacity="0.5"/>
    <path d="M 200.00,380.00 A 234.58,234.58 0 0,0 26.13,153.41" fill="none" stroke="#90c0f0" stroke-width="0.7" opacity="0.5"/>
    <path d="M 153.41,373.87 A 234.58,234.58 0 0,0 44.12,110.00" fill="none" stroke="#90c0f0" stroke-width="0.7" opacity="0.5"/>
    <path d="M 110.00,355.88 A 234.58,234.58 0 0,0 72.72,72.72" fill="none" stroke="#90c0f0" stroke-width="0.7" opacity="0.5"/>
    <path d="M 72.72,327.28 A 234.58,234.58 0 0,0 110.00,44.12" fill="none" stroke="#90c0f0" stroke-width="0.7" opacity="0.5"/>
    <path d="M 44.12,290.00 A 234.58,234.58 0 0,0 153.41,26.13" fill="none" stroke="#90c0f0" stroke-width="0.7" opacity="0.5"/>
    <path d="M 26.13,246.59 A 234.58,234.58 0 0,0 200.00,20.00" fill="none" stroke="#90c0f0" stroke-width="0.7" opacity="0.5"/>
    <path d="M 20.00,200.00 A 234.58,234.58 0 0,0 246.59,26.13" fill="none" stroke="#90c0f0" stroke-width="0.7" opacity="0.5"/>
    <path d="M 26.13,153.41 A 234.58,234.58 0 0,0 290.00,44.12" fill="none" stroke="#90c0f0" stroke-width="0.7" opacity="0.5"/>
    <path d="M 44.12,110.00 A 234.58,234.58 0 0,0 327.28,72.72" fill="none" stroke="#90c0f0" stroke-width="0.7" opacity="0.5"/>
    <path d="M 72.72,72.72 A 234.58,234.58 0 0,0 355.88,110.00" fill="none" stroke="#90c0f0" stroke-width="0.7" opacity="0.5"/>
    <path d="M 110.00,44.12 A 234.58,234.58 0 0,0 373.87,153.41" fill="none" stroke="#90c0f0" stroke-width="0.7" opacity="0.5"/>
    <path d="M 153.41,26.13 A 234.58,234.58 0 0,0 380.00,200.00" fill="none" stroke="#90c0f0" stroke-width="0.7" opacity="0.5"/>
    <path d="M 200.00,20.00 A 234.58,234.58 0 0,0 373.87,246.59" fill="none" stroke="#90c0f0" stroke-width="0.7" opacity="0.5"/>
    <path d="M 246.59,26.13 A 234.58,234.58 0 0,0 355.88,290.00" fill="none" stroke="#90c0f0" stroke-width="0.7" opacity="0.5"/>
    <path d="M 290.00,44.12 A 234.58,234.58 0 0,0 327.28,327.28" fill="none" stroke="#90c0f0" stroke-width="0.7" opacity="0.5"/>
    <path d="M 327.28,72.72 A 234.58,234.58 0 0,0 290.00,355.88" fill="none" stroke="#90c0f0" stroke-width="0.7" opacity="0.5"/>
    <path d="M 355.88,110.00 A 234.58,234.58 0 0,0 246.59,373.87" fill="none" stroke="#90c0f0" stroke-width="0.7" opacity="0.5"/>
    <path d="M 373.87,153.41 A 234.58,234.58 0 0,0 200.00,380.00" fill="none" stroke="#90c0f0" stroke-width="0.7" opacity="0.5"/>
    <path d="M 380.00,200.00 A 1367.24,1367.24 0 0,0 26.13,246.59" fill="none" stroke="#542ba4" stroke-width="0.5" opacity="0.5"/>
    <path d="M 373.87,246.59 A 1367.24,1367.24 0 0,0 20.00,200.00" fill="none" stroke="#542ba4" stroke-width="0.5" opacity="0.5"/>
    <path d="M 355.88,290.00 A 1367.24,1367.24 0 0,0 26.13,153.41" fill="none" stroke="#542ba4" stroke-width="0.5" opacity="0.5"/>
    <path d="M 327.28,327.28 A 1367.24,1367.24 0 0,0 44.12,110.00" fill="none" stroke="#542ba4" stroke-width="0.5" opacity="0.5"/>
    <path d="M 290.00,355.88 A 1367.24,1367.24 0 0,0 72.72,72.72" fill="none" stroke="#542ba4" stroke-width="0.5" opacity="0.5"/>
    <path d="M 246.59,373.87 A 1367.24,1367.24 0 0,0 110.00,44.12" fill="none" stroke="#542ba4" stroke-width="0.5" opacity="0.5"/>
    <path d="M 200.00,380.00 A 1367.24,1367.24 0 0,0 153.41,26.13" fill="none" stroke="#542ba4" stroke-width="0.5" opacity="0.5"/>
    <path d="M 153.41,373.87 A 1367.24,1367.24 0 0,0 200.00,20.00" fill="none" stroke="#542ba4" stroke-width="0.5" opacity="0.5"/>
    <path d="M 110.00,355.88 A 1367.24,1367.24 0 0,0 246.59,26.13" fill="none" stroke="#542ba4" stroke-width="0.5" opacity="0.5"/>
    <path d="M 72.72,327.28 A 1367.24,1367.24 0 0,0 290.00,44.12" fill="none" stroke="#542ba4" stroke-width="0.5" opacity="0.5"/>
    <path d="M 44.12,290.00 A 1367.24,1367.24 0 0,0 327.28,72.72" fill="none" stroke="#542ba4" stroke-width="0.5" opacity="0.5"/>
    <path d="M 26.13,246.59 A 1367.24,1367.24 0 0,0 355.88,110.00" fill="none" stroke="#542ba4" stroke-width="0.5" opacity="0.5"/>
    <path d="M 20.00,200.00 A 1367.24,1367.24 0 0,0 373.87,153.41" fill="none" stroke="#542ba4" stroke-width="0.5" opacity="0.5"/>
    <path d="M 26.13,153.41 A 1367.24,1367.24 0 0,0 380.00,200.00" fill="none" stroke="#542ba4" stroke-width="0.5" opacity="0.5"/>
    <path d="M 44.12,110.00 A 1367.24,1367.24 0 0,0 373.87,246.59" fill="none" stroke="#542ba4" stroke-width="0.5" opacity="0.5"/>
    <path d="M 72.72,72.72 A 1367.24,1367.24 0 0,0 355.88,290.00" fill="none" stroke="#542ba4" stroke-width="0.5" opacity="0.5"/>
    <path d="M 110.00,44.12 A 1367.24,1367.24 0 0,0 327.28,327.28" fill="none" stroke="#542ba4" stroke-width="0.5" opacity="0.5"/>
    <path d="M 153.41,26.13 A 1367.24,1367.24 0 0,0 290.00,355.88" fill="none" stroke="#542ba4" stroke-width="0.5" opacity="0.5"/>
    <path d="M 200.00,20.00 A 1367.24,1367.24 0 0,0 246.59,373.87" fill="none" stroke="#542ba4" stroke-width="0.5" opacity="0.5"/>
    <path d="M 246.59,26.13 A 1367.24,1367.24 0 0,0 200.00,380.00" fill="none" stroke="#542ba4" stroke-width="0.5" opacity="0.5"/>
    <path d="M 290.00,44.12 A 1367.24,1367.24 0 0,0 153.41,373.87" fill="none" stroke="#542ba4" stroke-width="0.5" opacity="0.5"/>
    <path d="M 327.28,72.72 A 1367.24,1367.24 0 0,0 110.00,355.88" fill="none" stroke="#542ba4" stroke-width="0.5" opacity="0.5"/>
    <path d="M 355.88,110.00 A 1367.24,1367.24 0 0,0 72.72,327.28" fill="none" stroke="#542ba4" stroke-width="0.5" opacity="0.5"/>
    <path d="M 373.87,153.41 A 1367.24,1367.24 0 0,0 44.12,290.00" fill="none" stroke="#542ba4" stroke-width="0.5" opacity="0.5"/>
  </g>

  <circle cx="200" cy="200" r="55" fill="none" stroke="#9093bf" stroke-width="1.5"/>
  <circle cx="200" cy="200" r="12" fill="none" stroke="#9093bf" stroke-width="1"/>
  <circle cx="200" cy="200" r="180" fill="none" stroke="#9093bf" stroke-width="2"/>

</svg>
