<?xml version="1.0" encoding="UTF-8" standalone="no"?>
<svg xmlns="http://www.w3.org/2000/svg" viewBox="0 0 500 500" width="500" height="500">
  <!-- Surfaces Logo - Solid sphere with wireframe cutaway -->
  <!-- Generated by generate_logo.py -->
  <defs>
    <clipPath id="sphere-clip">
      <circle cx="250.0" cy="250.0" r="200"/>
    </clipPath>
    <radialGradient id="sphere-grad" cx="40%" cy="35%" r="65%" fx="40%" fy="35%">
      <stop offset="0%" stop-color="#80b4ff" stop-opacity="0.75"/>
      <stop offset="70%" stop-color="#80b4ff" stop-opacity="0.88"/>
      <stop offset="100%" stop-color="#80b4ff" stop-opacity="0.95"/>
    </radialGradient>
  </defs>
  <g id="wireframe" clip-path="url(#sphere-clip)">
    <path d="M 280.6,152.3 L 279.7,149.3 L 278.5,146.4 L 277.2,143.6 L 275.7,141.0 L 274.0,138.4 L 272.0,136.0 L 269.9,133.9 L 267.7,131.9 L 265.3,130.1 L 262.7,128.7 L 260.0,127.5 L 257.2,126.6 L 254.3,126.0 L 251.4,125.7 L 248.4,125.7 L 245.4,126.0 L 242.4,126.6 L 239.4,127.5 L 236.5,128.6 L 233.6,129.9 L 230.8,131.4 L 228.0,133.0 L 225.3,134.7 L 222.6,136.4 L 220.0,138.1 L 217.5,139.8 L 214.9,141.4 L 212.4,142.9 L 209.8,144.2 L 207.3,145.4 L 204.7,146.5 L 202.0,147.5 L 199.3,148.3 L 196.6,149.1 L 193.8,149.7 L 191.0,150.4 L 188.2,151.1 L 185.4,151.8 L 182.7,152.6 L 180.0,153.6 L 177.6,154.8 L 175.3,156.1 L 173.2,157.7 L 171.5,159.5 L 170.1,161.6 L 169.0,163.9 L 168.4,166.5 L 168.1,169.3 L 168.3,172.3 L 169.0,175.4 L 170.1,178.7 L 171.6,182.1 L 173.5,185.6 L 175.7,189.1 L 178.3,192.5 L 181.2,195.8 L 184.3,199.1 L 187.6,202.2 L 191.0,205.1 L 194.6,207.9 L 198.1,210.4 L 201.7,212.7 L 205.2,214.7 L 208.7,216.5 L 212.1,218.0 L 215.4,219.3 L 218.6,220.3 L 221.8,221.1 L 224.8,221.6 L 227.8,221.9 L 230.7,222.0 L 233.5,221.8 L 236.3,221.3 L 239.1,220.7 L 241.9,219.8 L 244.7,218.7 L 247.4,217.3 L 250.2,215.7 L 252.9,214.0 L 255.6,212.0 L 258.3,209.8 L 260.9,207.5 L 263.4,205.0 L 265.9,202.3 L 268.2,199.6 L 270.4,196.6 L 272.5,193.6 L 274.4,190.6 L 276.1,187.4 L 277.6,184.2 L 278.9,181.0 L 280.0,177.8 L 280.8,174.5 L 281.5,171.2 L 281.9,168.0 L 282.1,164.8 L 282.0,161.6 L 281.8,158.5 L 281.3,155.3 L 280.6,152.3" fill="none" stroke="#80b4ff" stroke-width="0.60" opacity="0.15" stroke-linecap="round" stroke-linejoin="round"/>
    <path d="M 333.1,146.6 L 331.4,140.7 L 329.2,135.0 L 326.7,129.4 L 323.7,124.0 L 320.4,118.8 L 316.7,113.8 L 312.7,109.1 L 308.2,104.9 L 303.5,101.0 L 298.3,97.6 L 292.9,94.8 L 287.3,92.6 L 281.4,91.0 L 275.4,90.0 L 269.3,89.7 L 263.1,90.1 L 257.0,91.1 L 250.9,92.6 L 245.0,94.7 L 239.2,97.3 L 233.7,100.3 L 228.3,103.5 L 223.2,106.9 L 218.3,110.4 L 213.5,113.9 L 208.9,117.3 L 204.4,120.5 L 200.0,123.6 L 195.5,126.3 L 190.9,128.7 L 186.3,130.9 L 181.4,132.8 L 176.4,134.5 L 171.1,136.0 L 165.6,137.5 L 160.0,138.9 L 154.2,140.5 L 148.3,142.2 L 142.5,144.2 L 136.7,146.6 L 131.2,149.4 L 126.0,152.6 L 121.3,156.4 L 117.2,160.8 L 113.8,165.6 L 111.2,170.9 L 109.5,176.7 L 108.7,182.8 L 109.0,189.2 L 110.3,195.8 L 112.6,202.5 L 115.8,209.1 L 119.9,215.7 L 124.9,222.0 L 130.5,228.0 L 136.7,233.7 L 143.4,238.9 L 150.4,243.7 L 157.6,248.0 L 164.9,251.7 L 172.1,255.0 L 179.3,257.8 L 186.3,260.2 L 193.0,262.1 L 199.4,263.7 L 205.6,264.9 L 211.6,265.8 L 217.2,266.5 L 222.7,266.9 L 228.0,267.1 L 233.2,267.0 L 238.3,266.8 L 243.5,266.3 L 248.6,265.5 L 253.9,264.5 L 259.2,263.1 L 264.6,261.5 L 270.1,259.5 L 275.7,257.1 L 281.3,254.3 L 286.9,251.1 L 292.4,247.5 L 297.9,243.6 L 303.1,239.2 L 308.1,234.6 L 312.8,229.6 L 317.1,224.3 L 321.1,218.8 L 324.6,213.1 L 327.7,207.2 L 330.3,201.2 L 332.4,195.2 L 334.1,189.1 L 335.3,182.9 L 336.0,176.8 L 336.3,170.7 L 336.1,164.6 L 335.5,158.5 L 334.5,152.5 L 333.1,146.6" fill="none" stroke="#80b4ff" stroke-width="0.67" opacity="0.18" stroke-linecap="round" stroke-linejoin="round"/>
    <path d="M 373.4,153.9 L 371.1,146.0 L 368.4,138.1 L 365.3,130.3 L 361.7,122.5 L 357.6,114.9 L 353.1,107.4 L 348.1,100.2 L 342.5,93.4 L 336.4,86.9 L 329.7,81.0 L 322.6,75.7 L 314.9,71.2 L 306.8,67.4 L 298.4,64.4 L 289.7,62.4 L 280.8,61.4 L 271.8,61.2 L 262.9,62.0 L 254.0,63.6 L 245.3,66.1 L 236.8,69.2 L 228.6,73.0 L 220.8,77.2 L 213.3,81.7 L 206.2,86.4 L 199.3,91.3 L 192.7,96.1 L 186.3,100.8 L 180.0,105.3 L 173.7,109.6 L 167.4,113.7 L 160.9,117.5 L 154.3,121.2 L 147.5,124.7 L 140.5,128.2 L 133.3,131.7 L 125.9,135.4 L 118.4,139.4 L 111.0,143.7 L 103.7,148.5 L 96.6,153.8 L 90.1,159.7 L 84.1,166.3 L 78.9,173.4 L 74.6,181.0 L 71.3,189.2 L 69.3,197.8 L 68.4,206.8 L 68.9,215.9 L 70.7,225.1 L 73.8,234.2 L 78.2,243.1 L 83.7,251.6 L 90.2,259.7 L 97.7,267.3 L 105.9,274.2 L 114.7,280.4 L 123.9,286.0 L 133.3,290.8 L 142.9,294.9 L 152.4,298.4 L 161.8,301.3 L 171.0,303.7 L 179.8,305.6 L 188.4,307.1 L 196.7,308.3 L 204.7,309.3 L 212.5,310.1 L 220.1,310.6 L 227.7,311.0 L 235.1,311.2 L 242.7,311.2 L 250.3,311.0 L 258.0,310.4 L 266.0,309.5 L 274.0,308.2 L 282.3,306.5 L 290.6,304.2 L 299.0,301.4 L 307.4,298.0 L 315.7,293.9 L 323.8,289.3 L 331.5,284.0 L 338.9,278.2 L 345.8,271.9 L 352.2,265.1 L 357.9,257.9 L 362.9,250.4 L 367.3,242.6 L 370.9,234.6 L 373.8,226.5 L 376.0,218.4 L 377.5,210.2 L 378.5,202.1 L 378.8,193.9 L 378.6,185.8 L 378.0,177.8 L 376.9,169.8 L 375.4,161.8 L 373.4,153.9" fill="none" stroke="#80b4ff" stroke-width="0.77" opacity="0.24" stroke-linecap="round" stroke-linejoin="round"/>
    <path d="M 395.5,170.3 L 393.0,161.4 L 390.3,152.4 L 387.3,143.4 L 383.9,134.2 L 380.1,125.0 L 375.8,115.8 L 371.0,106.6 L 365.6,97.5 L 359.5,88.7 L 352.7,80.2 L 345.1,72.2 L 336.9,64.9 L 327.9,58.2 L 318.3,52.5 L 308.1,47.6 L 297.5,43.9 L 286.4,41.2 L 275.1,39.7 L 263.7,39.3 L 252.2,40.0 L 240.9,41.7 L 229.8,44.5 L 218.9,48.1 L 208.5,52.5 L 198.4,57.5 L 188.8,63.1 L 179.6,69.1 L 170.9,75.4 L 162.5,81.8 L 154.4,88.4 L 146.6,95.1 L 139.0,101.7 L 131.7,108.4 L 124.4,115.1 L 117.2,121.9 L 110.2,128.8 L 103.2,135.8 L 96.4,143.0 L 89.8,150.5 L 83.5,158.3 L 77.5,166.5 L 72.1,175.1 L 67.3,184.1 L 63.2,193.4 L 60.0,203.1 L 57.7,213.1 L 56.4,223.3 L 56.3,233.7 L 57.3,244.0 L 59.4,254.3 L 62.7,264.4 L 67.1,274.1 L 72.5,283.5 L 78.9,292.3 L 86.1,300.7 L 94.0,308.3 L 102.5,315.4 L 111.4,321.8 L 120.7,327.6 L 130.2,332.8 L 139.9,337.4 L 149.6,341.4 L 159.3,345.0 L 169.0,348.2 L 178.6,351.1 L 188.3,353.6 L 197.9,355.8 L 207.6,357.7 L 217.4,359.3 L 227.3,360.7 L 237.4,361.6 L 247.7,362.2 L 258.2,362.3 L 268.9,361.9 L 279.7,360.8 L 290.6,359.1 L 301.6,356.6 L 312.6,353.4 L 323.3,349.4 L 333.9,344.6 L 344.0,338.9 L 353.6,332.5 L 362.5,325.3 L 370.8,317.5 L 378.2,309.2 L 384.7,300.3 L 390.3,291.1 L 395.0,281.6 L 398.7,272.0 L 401.5,262.3 L 403.4,252.6 L 404.6,243.0 L 405.0,233.5 L 404.9,224.1 L 404.2,214.9 L 403.1,205.8 L 401.6,196.9 L 399.8,188.0 L 397.8,179.1 L 395.5,170.3" fill="none" stroke="#80b4ff" stroke-width="0.91" opacity="0.31" stroke-linecap="round" stroke-linejoin="round"/>
    <path d="M 271.9,331.6 L 274.0,335.4 L 276.0,339.0 L 278.0,342.4 L 279.8,345.6 L 281.6,348.5 L 283.3,351.4 L 285.0,354.1 L 286.5,356.6 L 288.1,359.1 L 289.5,361.5 L 291.0,363.8 L 292.4,366.2 L 293.8,368.5 L 295.2,370.8 L 296.7,373.1 L 298.1,375.5 L 299.5,377.9 L 301.0,380.4 L 302.5,383.0 L 304.0,385.7 L 305.6,388.4 L 307.2,391.3 L 308.9,394.2 L 310.6,397.2 L 312.3,400.2 L 314.1,403.4 L 315.8,406.5 L 317.7,409.7 L 319.5,412.9 L 321.3,416.0 L 323.1,419.1 L 324.9,422.2 L 326.7,425.1 L 328.4,427.9 L 330.0,430.5 L 331.6,433.0 L 333.1,435.2 L 334.6,437.2 L 335.9,439.0 L 337.0,440.4 L 338.1,441.5 L 339.0,442.3 L 339.8,442.7 L 340.4,442.8 L 340.8,442.5 L 341.1,441.8 L 341.1,440.6 L 341.0,439.1 L 340.7,437.2 L 340.2,434.9 L 339.6,432.3 L 338.7,429.2 L 337.7,425.8 L 336.5,422.0 L 335.1,417.9 L 333.6,413.5 L 331.9,408.8 L 330.1,403.9 L 328.1,398.7 L 326.1,393.3 L 323.9,387.8 L 321.6,382.1 L 319.3,376.2 L 316.8,370.3 L 314.4,364.3 L 311.8,358.3 L 309.3,352.2 L 306.7,346.1 L 304.1,340.0 L 301.5,334.0 L 298.9,328.0 L 296.4,322.1 L 293.8,316.3 L 291.3,310.5 L 288.8,304.8 L 286.3,299.1 L 283.8,293.6 L 281.4,288.1 L 279.0,282.7 L 276.6,277.4 L 274.3,272.1 L 272.0,266.9 L 269.7,261.7 L 267.4,256.5 L 265.1,251.3 L 262.8,246.1 L 260.5,240.9 L 258.2,235.7 L 255.9,230.4 L 253.5,225.1 L 251.1,219.7 L 248.7,214.3 L 246.3,208.8 L 243.8,203.2 L 241.3,197.5 L 238.7,191.8 L 236.1,186.0 L 233.5,180.2 L 230.8,174.3 L 228.1,168.4" fill="none" stroke="#80b4ff" stroke-width="1.04" opacity="0.37" stroke-linecap="round" stroke-linejoin="round"/>
    <path d="M 271.9,331.6 L 275.9,334.6 L 279.7,337.3 L 283.5,339.9 L 287.1,342.3 L 290.6,344.6 L 294.0,346.8 L 297.3,348.9 L 300.5,350.8 L 303.6,352.7 L 306.7,354.4 L 309.6,356.1 L 312.5,357.8 L 315.3,359.4 L 318.1,360.9 L 320.8,362.5 L 323.6,364.0 L 326.3,365.5 L 328.9,367.0 L 331.6,368.5 L 334.3,370.0 L 337.0,371.5 L 339.7,373.0 L 342.4,374.6 L 345.2,376.1 L 347.9,377.7 L 350.7,379.2 L 353.5,380.7 L 356.2,382.2 L 359.0,383.7 L 361.8,385.1 L 364.5,386.5 L 367.2,387.8 L 369.9,389.0 L 372.5,390.1 L 375.1,391.1 L 377.6,392.0 L 380.0,392.7 L 382.3,393.3 L 384.4,393.7 L 386.5,394.0 L 388.3,394.0 L 390.1,393.9 L 391.6,393.5 L 393.0,392.9 L 394.2,392.1 L 395.2,391.1 L 395.9,389.8 L 396.4,388.3 L 396.8,386.5 L 396.8,384.5 L 396.7,382.3 L 396.3,379.9 L 395.6,377.2 L 394.7,374.3 L 393.6,371.1 L 392.3,367.8 L 390.7,364.3 L 388.9,360.6 L 386.9,356.7 L 384.7,352.7 L 382.2,348.5 L 379.6,344.2 L 376.9,339.8 L 373.9,335.3 L 370.8,330.6 L 367.6,326.0 L 364.2,321.2 L 360.8,316.4 L 357.2,311.5 L 353.5,306.7 L 349.7,301.8 L 345.9,296.9 L 342.0,291.9 L 338.1,287.0 L 334.0,282.1 L 330.0,277.3 L 325.9,272.4 L 321.8,267.5 L 317.7,262.7 L 313.6,257.9 L 309.4,253.2 L 305.2,248.4 L 301.0,243.7 L 296.8,239.1 L 292.6,234.4 L 288.4,229.8 L 284.2,225.2 L 279.9,220.6 L 275.7,216.1 L 271.4,211.6 L 267.1,207.1 L 262.8,202.6 L 258.5,198.2 L 254.2,193.8 L 249.9,189.5 L 245.5,185.1 L 241.2,180.9 L 236.8,176.6 L 232.5,172.5 L 228.1,168.4" fill="none" stroke="#80b4ff" stroke-width="1.06" opacity="0.38" stroke-linecap="round" stroke-linejoin="round"/>
    <path d="M 271.9,331.6 L 272.0,336.4 L 272.2,341.0 L 272.3,345.5 L 272.4,349.7 L 272.5,353.9 L 272.5,357.8 L 272.6,361.7 L 272.6,365.4 L 272.6,369.0 L 272.7,372.6 L 272.7,376.1 L 272.7,379.6 L 272.7,383.1 L 272.7,386.5 L 272.8,390.0 L 272.8,393.4 L 272.8,396.9 L 272.9,400.5 L 272.9,404.0 L 272.9,407.6 L 273.0,411.3 L 273.0,415.0 L 273.1,418.7 L 273.1,422.4 L 273.1,426.1 L 273.1,429.9 L 273.1,433.6 L 273.1,437.2 L 273.1,440.8 L 273.0,444.2 L 273.0,447.6 L 272.8,450.8 L 272.7,453.8 L 272.5,456.6 L 272.3,459.2 L 272.1,461.5 L 271.8,463.6 L 271.5,465.3 L 271.1,466.7 L 270.7,467.7 L 270.2,468.3 L 269.7,468.6 L 269.2,468.4 L 268.6,467.8 L 268.0,466.8 L 267.3,465.4 L 266.6,463.5 L 265.9,461.2 L 265.1,458.4 L 264.3,455.3 L 263.5,451.7 L 262.7,447.8 L 261.8,443.5 L 260.9,438.8 L 260.0,433.9 L 259.1,428.6 L 258.2,423.1 L 257.3,417.3 L 256.4,411.4 L 255.6,405.2 L 254.7,399.0 L 253.8,392.6 L 253.0,386.1 L 252.1,379.6 L 251.3,373.1 L 250.5,366.6 L 249.8,360.1 L 249.0,353.7 L 248.3,347.3 L 247.6,341.0 L 246.9,334.8 L 246.2,328.7 L 245.6,322.8 L 245.0,316.9 L 244.3,311.2 L 243.7,305.5 L 243.2,300.0 L 242.6,294.6 L 242.0,289.2 L 241.4,284.0 L 240.8,278.7 L 240.3,273.6 L 239.7,268.4 L 239.1,263.2 L 238.5,258.1 L 237.9,252.8 L 237.3,247.6 L 236.6,242.2 L 236.0,236.8 L 235.3,231.2 L 234.6,225.5 L 233.9,219.8 L 233.2,213.8 L 232.5,207.7 L 231.8,201.5 L 231.1,195.1 L 230.3,188.6 L 229.6,182.0 L 228.9,175.2 L 228.1,168.4" fill="none" stroke="#80b4ff" stroke-width="1.07" opacity="0.38" stroke-linecap="round" stroke-linejoin="round"/>
    <path d="M 405.8,188.8 L 403.3,179.6 L 400.7,170.3 L 397.9,160.9 L 394.8,151.3 L 391.5,141.6 L 387.7,131.7 L 383.4,121.7 L 378.5,111.7 L 372.9,101.8 L 366.5,91.9 L 359.3,82.4 L 351.3,73.3 L 342.3,64.7 L 332.6,56.9 L 322.0,49.8 L 310.7,43.7 L 298.7,38.6 L 286.1,34.7 L 273.2,31.9 L 259.9,30.4 L 246.5,30.1 L 233.1,31.1 L 219.8,33.2 L 206.7,36.5 L 194.0,40.9 L 181.7,46.3 L 170.0,52.5 L 158.8,59.6 L 148.3,67.3 L 138.5,75.5 L 129.3,84.3 L 120.8,93.4 L 113.0,102.9 L 105.7,112.5 L 99.1,122.4 L 93.1,132.4 L 87.7,142.5 L 82.8,152.7 L 78.4,163.0 L 74.6,173.4 L 71.3,183.7 L 68.6,194.2 L 66.5,204.6 L 65.0,215.1 L 64.0,225.6 L 63.7,236.1 L 64.1,246.5 L 65.1,256.9 L 66.7,267.1 L 69.1,277.2 L 72.1,287.1 L 75.8,296.8 L 80.0,306.2 L 85.0,315.4 L 90.4,324.2 L 96.5,332.8 L 103.0,341.0 L 110.1,348.9 L 117.6,356.4 L 125.6,363.6 L 134.0,370.5 L 142.8,376.9 L 152.1,383.0 L 161.8,388.7 L 171.9,394.0 L 182.4,398.8 L 193.4,403.1 L 204.8,406.9 L 216.6,410.1 L 228.8,412.6 L 241.3,414.3 L 254.2,415.3 L 267.2,415.3 L 280.4,414.5 L 293.6,412.6 L 306.7,409.8 L 319.6,405.9 L 332.2,401.0 L 344.3,395.1 L 355.8,388.2 L 366.6,380.5 L 376.5,371.9 L 385.5,362.6 L 393.4,352.6 L 400.3,342.2 L 406.1,331.5 L 410.9,320.4 L 414.5,309.3 L 417.1,298.2 L 418.8,287.1 L 419.6,276.3 L 419.7,265.6 L 419.1,255.2 L 418.1,245.1 L 416.6,235.3 L 414.7,225.7 L 412.7,216.3 L 410.5,207.1 L 408.2,197.9 L 405.8,188.8" fill="none" stroke="#80b4ff" stroke-width="1.08" opacity="0.39" stroke-linecap="round" stroke-linejoin="round"/>
    <path d="M 271.9,331.6 L 270.1,337.0 L 268.3,342.3 L 266.4,347.5 L 264.6,352.6 L 262.8,357.6 L 260.9,362.5 L 259.1,367.4 L 257.2,372.1 L 255.3,376.7 L 253.5,381.2 L 251.6,385.7 L 249.7,390.0 L 247.9,394.3 L 246.0,398.5 L 244.1,402.7 L 242.2,406.7 L 240.3,410.7 L 238.4,414.5 L 236.6,418.3 L 234.7,422.0 L 232.8,425.6 L 230.9,429.1 L 229.0,432.5 L 227.1,435.7 L 225.2,438.8 L 223.3,441.8 L 221.4,444.6 L 219.5,447.3 L 217.7,449.8 L 215.8,452.0 L 214.0,454.1 L 212.2,455.9 L 210.5,457.5 L 208.7,458.9 L 207.0,460.0 L 205.4,460.8 L 203.8,461.4 L 202.3,461.6 L 200.8,461.5 L 199.4,461.2 L 198.1,460.5 L 196.9,459.5 L 195.7,458.1 L 194.6,456.5 L 193.6,454.5 L 192.7,452.2 L 191.9,449.6 L 191.2,446.6 L 190.6,443.4 L 190.1,439.9 L 189.7,436.2 L 189.4,432.1 L 189.2,427.9 L 189.1,423.4 L 189.1,418.7 L 189.2,413.8 L 189.3,408.7 L 189.6,403.5 L 189.9,398.2 L 190.4,392.7 L 190.9,387.2 L 191.4,381.6 L 192.0,376.0 L 192.7,370.3 L 193.4,364.6 L 194.2,358.9 L 195.0,353.2 L 195.8,347.5 L 196.7,341.9 L 197.5,336.3 L 198.4,330.7 L 199.3,325.2 L 200.3,319.8 L 201.2,314.4 L 202.1,309.0 L 203.0,303.7 L 203.9,298.4 L 204.8,293.2 L 205.7,288.0 L 206.6,282.8 L 207.5,277.6 L 208.4,272.5 L 209.3,267.3 L 210.2,262.1 L 211.1,256.8 L 212.0,251.5 L 213.0,246.1 L 213.9,240.7 L 214.9,235.2 L 215.8,229.6 L 216.9,223.9 L 217.9,218.1 L 219.0,212.2 L 220.2,206.2 L 221.4,200.1 L 222.6,193.9 L 223.9,187.7 L 225.2,181.3 L 226.7,174.9 L 228.1,168.4" fill="none" stroke="#80b4ff" stroke-width="1.10" opacity="0.40" stroke-linecap="round" stroke-linejoin="round"/>
    <path d="M 271.9,331.6 L 277.5,333.9 L 283.0,336.0 L 288.5,338.1 L 294.0,340.0 L 299.4,341.9 L 304.8,343.7 L 310.1,345.4 L 315.3,346.9 L 320.5,348.4 L 325.6,349.8 L 330.6,351.0 L 335.5,352.2 L 340.3,353.2 L 344.9,354.1 L 349.5,355.0 L 354.0,355.6 L 358.3,356.2 L 362.5,356.7 L 366.6,357.0 L 370.6,357.3 L 374.4,357.4 L 378.1,357.4 L 381.6,357.3 L 385.0,357.1 L 388.2,356.8 L 391.3,356.4 L 394.2,355.8 L 397.0,355.2 L 399.7,354.5 L 402.2,353.7 L 404.5,352.8 L 406.8,351.8 L 408.8,350.7 L 410.8,349.6 L 412.6,348.3 L 414.2,347.0 L 415.7,345.6 L 417.1,344.1 L 418.4,342.6 L 419.5,341.0 L 420.5,339.3 L 421.4,337.5 L 422.2,335.7 L 422.8,333.8 L 423.3,331.9 L 423.6,329.9 L 423.9,327.8 L 424.0,325.6 L 424.0,323.4 L 423.8,321.1 L 423.5,318.8 L 423.1,316.3 L 422.5,313.9 L 421.8,311.3 L 420.9,308.7 L 419.9,306.0 L 418.7,303.2 L 417.4,300.4 L 415.9,297.5 L 414.2,294.5 L 412.3,291.5 L 410.3,288.4 L 408.0,285.2 L 405.6,282.0 L 403.0,278.7 L 400.3,275.3 L 397.3,271.9 L 394.1,268.5 L 390.8,265.0 L 387.2,261.5 L 383.5,257.9 L 379.6,254.3 L 375.5,250.7 L 371.3,247.1 L 366.8,243.5 L 362.2,239.8 L 357.5,236.2 L 352.6,232.6 L 347.5,229.0 L 342.3,225.4 L 337.0,221.8 L 331.6,218.3 L 326.1,214.9 L 320.5,211.5 L 314.8,208.1 L 309.1,204.8 L 303.3,201.6 L 297.5,198.5 L 291.6,195.5 L 285.7,192.5 L 279.8,189.6 L 273.9,186.9 L 268.1,184.2 L 262.2,181.6 L 256.4,179.1 L 250.6,176.8 L 244.9,174.5 L 239.3,172.4 L 233.7,170.3 L 228.1,168.4" fill="none" stroke="#80b4ff" stroke-width="1.11" opacity="0.41" stroke-linecap="round" stroke-linejoin="round"/>
    <path d="M 271.9,331.6 L 268.3,336.8 L 264.6,341.9 L 260.8,347.0 L 257.1,352.0 L 253.2,356.9 L 249.4,361.7 L 245.5,366.5 L 241.6,371.1 L 237.7,375.7 L 233.7,380.1 L 229.8,384.3 L 225.8,388.5 L 221.9,392.4 L 218.0,396.2 L 214.1,399.8 L 210.2,403.3 L 206.4,406.5 L 202.6,409.6 L 198.9,412.4 L 195.3,415.0 L 191.7,417.4 L 188.2,419.6 L 184.8,421.6 L 181.5,423.3 L 178.3,424.8 L 175.1,426.1 L 172.1,427.1 L 169.2,427.9 L 166.4,428.5 L 163.8,428.9 L 161.2,429.1 L 158.8,429.0 L 156.5,428.7 L 154.3,428.3 L 152.2,427.6 L 150.3,426.7 L 148.5,425.7 L 146.8,424.5 L 145.2,423.1 L 143.7,421.5 L 142.4,419.8 L 141.1,418.0 L 140.0,416.0 L 139.0,413.8 L 138.1,411.6 L 137.3,409.2 L 136.6,406.7 L 136.0,404.1 L 135.5,401.3 L 135.0,398.5 L 134.7,395.6 L 134.5,392.5 L 134.3,389.4 L 134.2,386.2 L 134.3,382.9 L 134.4,379.5 L 134.6,376.0 L 134.9,372.4 L 135.2,368.7 L 135.7,365.0 L 136.2,361.2 L 136.8,357.2 L 137.5,353.2 L 138.3,349.2 L 139.2,345.0 L 140.2,340.7 L 141.3,336.4 L 142.5,331.9 L 143.7,327.4 L 145.1,322.8 L 146.6,318.2 L 148.2,313.4 L 149.8,308.6 L 151.6,303.7 L 153.5,298.8 L 155.4,293.7 L 157.5,288.6 L 159.7,283.5 L 162.0,278.3 L 164.3,273.1 L 166.8,267.8 L 169.4,262.5 L 172.0,257.1 L 174.8,251.8 L 177.6,246.4 L 180.5,241.0 L 183.5,235.6 L 186.6,230.2 L 189.8,224.9 L 193.0,219.5 L 196.3,214.2 L 199.6,208.9 L 203.0,203.6 L 206.5,198.4 L 210.0,193.2 L 213.6,188.1 L 217.2,183.1 L 220.8,178.1 L 224.4,173.2 L 228.1,168.4" fill="none" stroke="#80b4ff" stroke-width="1.13" opacity="0.42" stroke-linecap="round" stroke-linejoin="round"/>
    <path d="M 271.9,331.6 L 266.8,335.7 L 261.6,339.6 L 256.3,343.5 L 251.0,347.4 L 245.6,351.2 L 240.1,354.8 L 234.5,358.4 L 229.0,361.8 L 223.4,365.1 L 217.7,368.2 L 212.2,371.2 L 206.6,373.9 L 201.1,376.5 L 195.6,378.9 L 190.3,381.0 L 185.0,382.9 L 179.9,384.6 L 174.9,386.0 L 170.0,387.2 L 165.3,388.1 L 160.8,388.8 L 156.5,389.3 L 152.4,389.5 L 148.5,389.5 L 144.8,389.3 L 141.3,388.8 L 138.1,388.2 L 135.0,387.3 L 132.2,386.3 L 129.6,385.1 L 127.1,383.8 L 124.9,382.3 L 122.9,380.7 L 121.0,379.0 L 119.2,377.2 L 117.6,375.3 L 116.2,373.4 L 114.8,371.4 L 113.6,369.4 L 112.4,367.3 L 111.3,365.3 L 110.2,363.2 L 109.2,361.1 L 108.2,359.1 L 107.2,357.0 L 106.3,355.0 L 105.3,352.9 L 104.3,350.9 L 103.3,348.9 L 102.3,346.9 L 101.2,344.9 L 100.2,342.8 L 99.1,340.8 L 98.1,338.7 L 97.0,336.6 L 96.0,334.4 L 95.0,332.1 L 94.0,329.8 L 93.1,327.4 L 92.3,324.9 L 91.6,322.3 L 91.0,319.6 L 90.6,316.7 L 90.3,313.7 L 90.2,310.6 L 90.2,307.3 L 90.5,303.8 L 91.0,300.3 L 91.8,296.5 L 92.8,292.6 L 94.1,288.6 L 95.7,284.5 L 97.5,280.2 L 99.7,275.7 L 102.2,271.2 L 104.9,266.6 L 108.0,261.9 L 111.4,257.1 L 115.0,252.3 L 118.9,247.4 L 123.1,242.5 L 127.6,237.7 L 132.3,232.8 L 137.2,228.0 L 142.3,223.3 L 147.6,218.6 L 153.0,214.0 L 158.6,209.6 L 164.3,205.2 L 170.1,201.0 L 176.0,197.0 L 181.9,193.1 L 187.8,189.4 L 193.7,185.8 L 199.6,182.5 L 205.5,179.3 L 211.2,176.3 L 217.0,173.5 L 222.6,170.8 L 228.1,168.4" fill="none" stroke="#80b4ff" stroke-width="1.17" opacity="0.44" stroke-linecap="round" stroke-linejoin="round"/>
    <path d="M 271.9,331.6 L 278.4,333.0 L 285.1,334.3 L 291.9,335.4 L 298.8,336.5 L 305.7,337.4 L 312.7,338.2 L 319.8,338.9 L 326.8,339.5 L 333.9,339.8 L 340.9,340.1 L 347.8,340.1 L 354.7,340.0 L 361.4,339.7 L 367.9,339.3 L 374.3,338.6 L 380.5,337.8 L 386.4,336.8 L 392.1,335.6 L 397.5,334.3 L 402.6,332.8 L 407.4,331.2 L 411.8,329.4 L 416.0,327.5 L 419.7,325.4 L 423.2,323.3 L 426.2,321.0 L 428.9,318.7 L 431.3,316.2 L 433.3,313.7 L 435.0,311.1 L 436.4,308.5 L 437.4,305.9 L 438.2,303.2 L 438.6,300.5 L 438.9,297.8 L 438.9,295.1 L 438.7,292.4 L 438.3,289.8 L 437.7,287.1 L 437.0,284.5 L 436.1,281.9 L 435.2,279.4 L 434.2,276.8 L 433.2,274.3 L 432.0,271.9 L 430.9,269.5 L 429.8,267.1 L 428.6,264.7 L 427.5,262.4 L 426.4,260.0 L 425.3,257.7 L 424.2,255.4 L 423.1,253.1 L 422.1,250.8 L 421.0,248.5 L 420.0,246.2 L 418.9,243.9 L 417.8,241.5 L 416.7,239.1 L 415.5,236.7 L 414.2,234.3 L 412.8,231.8 L 411.3,229.3 L 409.7,226.8 L 408.0,224.3 L 406.0,221.7 L 403.9,219.1 L 401.6,216.5 L 399.0,213.9 L 396.3,211.3 L 393.3,208.7 L 390.0,206.1 L 386.5,203.5 L 382.7,200.9 L 378.7,198.4 L 374.4,196.0 L 369.9,193.6 L 365.1,191.2 L 360.0,188.9 L 354.7,186.8 L 349.2,184.7 L 343.5,182.7 L 337.6,180.8 L 331.6,179.0 L 325.4,177.4 L 319.0,175.9 L 312.6,174.5 L 306.0,173.2 L 299.4,172.1 L 292.8,171.1 L 286.1,170.3 L 279.5,169.6 L 272.8,169.0 L 266.2,168.6 L 259.6,168.3 L 253.1,168.1 L 246.7,168.0 L 240.4,168.0 L 234.2,168.1 L 228.1,168.4" fill="none" stroke="#80b4ff" stroke-width="1.19" opacity="0.45" stroke-linecap="round" stroke-linejoin="round"/>
    <path d="M 271.9,331.6 L 265.9,333.9 L 259.9,336.1 L 253.7,338.2 L 247.4,340.3 L 241.1,342.2 L 234.6,344.0 L 228.1,345.7 L 221.6,347.2 L 215.1,348.6 L 208.5,349.8 L 202.0,350.9 L 195.6,351.8 L 189.2,352.5 L 182.9,353.0 L 176.8,353.3 L 170.8,353.4 L 164.9,353.4 L 159.3,353.1 L 153.9,352.6 L 148.7,352.0 L 143.7,351.1 L 139.0,350.1 L 134.6,349.0 L 130.4,347.6 L 126.6,346.1 L 123.0,344.5 L 119.6,342.8 L 116.6,340.9 L 113.8,339.0 L 111.3,336.9 L 109.0,334.8 L 106.9,332.7 L 105.0,330.5 L 103.4,328.2 L 101.9,326.0 L 100.5,323.7 L 99.2,321.5 L 98.1,319.2 L 97.0,317.0 L 95.9,314.8 L 94.9,312.7 L 93.9,310.5 L 92.8,308.4 L 91.8,306.4 L 90.6,304.3 L 89.4,302.3 L 88.2,300.4 L 86.8,298.4 L 85.4,296.5 L 83.9,294.5 L 82.3,292.6 L 80.6,290.6 L 78.8,288.6 L 77.0,286.6 L 75.2,284.5 L 73.3,282.4 L 71.5,280.2 L 69.7,277.9 L 67.9,275.6 L 66.2,273.2 L 64.7,270.6 L 63.2,268.0 L 62.0,265.2 L 60.9,262.4 L 60.1,259.4 L 59.6,256.4 L 59.4,253.2 L 59.4,250.0 L 59.9,246.6 L 60.7,243.2 L 61.8,239.6 L 63.4,236.1 L 65.4,232.4 L 67.9,228.8 L 70.7,225.1 L 74.0,221.4 L 77.7,217.7 L 81.8,214.1 L 86.4,210.5 L 91.3,206.9 L 96.6,203.5 L 102.2,200.1 L 108.2,196.9 L 114.5,193.7 L 121.0,190.8 L 127.8,187.9 L 134.8,185.3 L 141.9,182.8 L 149.2,180.6 L 156.6,178.5 L 164.0,176.6 L 171.5,174.9 L 178.9,173.4 L 186.3,172.1 L 193.6,171.1 L 200.8,170.2 L 207.9,169.5 L 214.8,168.9 L 221.6,168.6 L 228.1,168.4" fill="none" stroke="#80b4ff" stroke-width="1.23" opacity="0.46" stroke-linecap="round" stroke-linejoin="round"/>
    <path d="M 416.1,205.5 L 413.5,196.0 L 410.6,186.6 L 407.4,177.2 L 403.9,167.8 L 400.1,158.4 L 395.8,148.9 L 391.0,139.4 L 385.7,130.0 L 379.7,120.7 L 373.1,111.5 L 365.8,102.5 L 357.8,93.8 L 348.9,85.5 L 339.3,77.7 L 328.9,70.5 L 317.7,64.0 L 305.9,58.3 L 293.4,53.4 L 280.3,49.6 L 266.8,46.8 L 252.9,45.2 L 238.8,44.7 L 224.6,45.4 L 210.5,47.3 L 196.5,50.4 L 182.9,54.7 L 169.6,60.1 L 157.0,66.6 L 145.0,74.1 L 133.9,82.4 L 123.6,91.6 L 114.2,101.4 L 105.8,111.9 L 98.3,122.7 L 91.9,134.0 L 86.5,145.4 L 82.1,157.0 L 78.6,168.6 L 75.9,180.2 L 74.1,191.6 L 73.0,202.9 L 72.5,213.9 L 72.6,224.8 L 73.2,235.3 L 74.2,245.7 L 75.6,255.8 L 77.3,265.7 L 79.2,275.4 L 81.4,285.0 L 83.9,294.5 L 86.5,304.0 L 89.4,313.4 L 92.6,322.8 L 96.1,332.2 L 99.9,341.6 L 104.2,351.1 L 109.0,360.6 L 114.3,370.0 L 120.3,379.3 L 126.9,388.5 L 134.2,397.5 L 142.2,406.2 L 151.1,414.5 L 160.7,422.3 L 171.1,429.5 L 182.3,436.0 L 194.1,441.7 L 206.6,446.6 L 219.7,450.4 L 233.2,453.2 L 247.1,454.8 L 261.2,455.3 L 275.4,454.6 L 289.5,452.7 L 303.5,449.6 L 317.1,445.3 L 330.4,439.9 L 343.0,433.4 L 355.0,425.9 L 366.1,417.6 L 376.4,408.4 L 385.8,398.6 L 394.2,388.1 L 401.7,377.3 L 408.1,366.0 L 413.5,354.6 L 417.9,343.0 L 421.4,331.4 L 424.1,319.8 L 425.9,308.4 L 427.0,297.1 L 427.5,286.1 L 427.4,275.2 L 426.8,264.7 L 425.8,254.3 L 424.4,244.2 L 422.7,234.3 L 420.8,224.6 L 418.6,215.0 L 416.1,205.5" fill="none" stroke="#80b4ff" stroke-width="1.25" opacity="0.47" stroke-linecap="round" stroke-linejoin="round"/>
    <path d="M 271.9,331.6 L 278.4,331.4 L 285.2,331.1 L 292.1,330.5 L 299.2,329.8 L 306.4,328.9 L 313.7,327.9 L 321.1,326.6 L 328.5,325.1 L 336.0,323.4 L 343.4,321.5 L 350.8,319.4 L 358.1,317.2 L 365.2,314.7 L 372.2,312.1 L 379.0,309.2 L 385.5,306.3 L 391.8,303.1 L 397.8,299.9 L 403.4,296.5 L 408.7,293.1 L 413.6,289.5 L 418.2,285.9 L 422.3,282.3 L 426.0,278.6 L 429.3,274.9 L 432.1,271.2 L 434.6,267.6 L 436.6,263.9 L 438.2,260.4 L 439.3,256.8 L 440.1,253.4 L 440.6,250.0 L 440.6,246.8 L 440.4,243.6 L 439.9,240.6 L 439.1,237.6 L 438.0,234.8 L 436.8,232.0 L 435.3,229.4 L 433.8,226.8 L 432.1,224.4 L 430.3,222.1 L 428.5,219.8 L 426.7,217.6 L 424.8,215.5 L 423.0,213.4 L 421.2,211.4 L 419.4,209.4 L 417.7,207.4 L 416.1,205.5 L 414.6,203.5 L 413.2,201.6 L 411.8,199.6 L 410.6,197.7 L 409.4,195.7 L 408.2,193.6 L 407.2,191.6 L 406.1,189.5 L 405.1,187.3 L 404.1,185.2 L 403.0,183.0 L 401.9,180.8 L 400.8,178.5 L 399.5,176.3 L 398.1,174.0 L 396.6,171.8 L 395.0,169.5 L 393.1,167.3 L 391.0,165.2 L 388.7,163.1 L 386.2,161.0 L 383.4,159.1 L 380.4,157.2 L 377.0,155.5 L 373.4,153.9 L 369.6,152.4 L 365.4,151.0 L 361.0,149.9 L 356.3,148.9 L 351.3,148.0 L 346.1,147.4 L 340.7,146.9 L 335.1,146.6 L 329.2,146.6 L 323.2,146.7 L 317.1,147.0 L 310.8,147.5 L 304.4,148.2 L 298.0,149.1 L 291.5,150.2 L 284.9,151.4 L 278.4,152.8 L 271.9,154.3 L 265.4,156.0 L 258.9,157.8 L 252.6,159.7 L 246.3,161.8 L 240.1,163.9 L 234.1,166.1 L 228.1,168.4" fill="none" stroke="#80b4ff" stroke-width="1.27" opacity="0.49" stroke-linecap="round" stroke-linejoin="round"/>
    <path d="M 271.9,331.6 L 265.8,331.9 L 259.6,332.0 L 253.3,332.0 L 246.9,331.9 L 240.4,331.7 L 233.8,331.4 L 227.2,331.0 L 220.5,330.4 L 213.9,329.7 L 207.2,328.9 L 200.6,327.9 L 194.0,326.8 L 187.4,325.5 L 181.0,324.1 L 174.6,322.6 L 168.4,321.0 L 162.4,319.2 L 156.5,317.3 L 150.8,315.3 L 145.3,313.2 L 140.0,311.1 L 134.9,308.8 L 130.1,306.4 L 125.6,304.0 L 121.3,301.6 L 117.3,299.1 L 113.5,296.5 L 110.0,293.9 L 106.7,291.3 L 103.7,288.7 L 101.0,286.1 L 98.4,283.5 L 96.1,280.9 L 94.0,278.3 L 92.0,275.7 L 90.3,273.2 L 88.7,270.7 L 87.2,268.2 L 85.8,265.7 L 84.5,263.3 L 83.3,260.9 L 82.2,258.5 L 81.1,256.1 L 80.0,253.8 L 79.0,251.5 L 77.9,249.2 L 76.9,246.9 L 75.8,244.6 L 74.7,242.3 L 73.6,240.0 L 72.5,237.6 L 71.4,235.3 L 70.2,232.9 L 69.1,230.5 L 68.0,228.1 L 66.8,225.7 L 65.8,223.2 L 64.8,220.6 L 63.9,218.1 L 63.0,215.5 L 62.3,212.9 L 61.7,210.2 L 61.3,207.6 L 61.1,204.9 L 61.1,202.2 L 61.4,199.5 L 61.8,196.8 L 62.6,194.1 L 63.6,191.5 L 65.0,188.9 L 66.7,186.3 L 68.7,183.8 L 71.1,181.3 L 73.8,179.0 L 76.8,176.7 L 80.3,174.6 L 84.0,172.5 L 88.2,170.6 L 92.6,168.8 L 97.4,167.2 L 102.5,165.7 L 107.9,164.4 L 113.6,163.2 L 119.5,162.2 L 125.7,161.4 L 132.1,160.7 L 138.6,160.3 L 145.3,160.0 L 152.2,159.9 L 159.1,159.9 L 166.1,160.2 L 173.2,160.5 L 180.2,161.1 L 187.3,161.8 L 194.3,162.6 L 201.2,163.5 L 208.1,164.6 L 214.9,165.7 L 221.6,167.0 L 228.1,168.4" fill="none" stroke="#80b4ff" stroke-width="1.31" opacity="0.50" stroke-linecap="round" stroke-linejoin="round"/>
    <path d="M 271.9,331.6 L 277.4,329.2 L 283.0,326.5 L 288.8,323.7 L 294.5,320.7 L 300.4,317.5 L 306.3,314.2 L 312.2,310.6 L 318.1,306.9 L 324.0,303.0 L 329.9,299.0 L 335.7,294.8 L 341.4,290.4 L 347.0,286.0 L 352.4,281.4 L 357.7,276.7 L 362.8,272.0 L 367.7,267.2 L 372.4,262.3 L 376.9,257.5 L 381.1,252.6 L 385.0,247.7 L 388.6,242.9 L 392.0,238.1 L 395.1,233.4 L 397.8,228.8 L 400.3,224.3 L 402.5,219.8 L 404.3,215.5 L 405.9,211.4 L 407.2,207.4 L 408.2,203.5 L 409.0,199.7 L 409.5,196.2 L 409.8,192.7 L 409.8,189.4 L 409.7,186.3 L 409.4,183.3 L 409.0,180.4 L 408.4,177.7 L 407.7,175.1 L 406.9,172.6 L 406.0,170.2 L 405.0,167.9 L 404.0,165.6 L 403.0,163.4 L 401.9,161.3 L 400.9,159.2 L 399.8,157.2 L 398.8,155.1 L 397.7,153.1 L 396.7,151.1 L 395.7,149.1 L 394.7,147.1 L 393.7,145.0 L 392.8,143.0 L 391.8,140.9 L 390.8,138.9 L 389.8,136.8 L 388.7,134.7 L 387.6,132.7 L 386.4,130.6 L 385.2,128.6 L 383.8,126.6 L 382.4,124.7 L 380.8,122.8 L 379.0,121.0 L 377.1,119.3 L 375.1,117.7 L 372.9,116.2 L 370.4,114.9 L 367.8,113.7 L 365.0,112.7 L 361.9,111.8 L 358.7,111.2 L 355.2,110.7 L 351.5,110.5 L 347.6,110.5 L 343.5,110.7 L 339.2,111.2 L 334.7,111.9 L 330.0,112.8 L 325.1,114.0 L 320.1,115.4 L 315.0,117.1 L 309.7,119.0 L 304.4,121.1 L 298.9,123.5 L 293.4,126.1 L 287.8,128.8 L 282.3,131.8 L 276.6,134.9 L 271.0,138.2 L 265.5,141.6 L 259.9,145.2 L 254.4,148.8 L 249.0,152.6 L 243.7,156.5 L 238.4,160.4 L 233.2,164.3 L 228.1,168.4" fill="none" stroke="#80b4ff" stroke-width="1.33" opacity="0.51" stroke-linecap="round" stroke-linejoin="round"/>
    <path d="M 271.9,331.6 L 275.6,326.8 L 279.2,321.9 L 282.8,316.9 L 286.4,311.9 L 290.0,306.8 L 293.5,301.6 L 297.0,296.4 L 300.4,291.1 L 303.7,285.8 L 307.0,280.5 L 310.2,275.1 L 313.4,269.8 L 316.5,264.4 L 319.5,259.0 L 322.4,253.6 L 325.2,248.2 L 328.0,242.9 L 330.6,237.5 L 333.2,232.2 L 335.7,226.9 L 338.0,221.7 L 340.3,216.5 L 342.5,211.4 L 344.6,206.3 L 346.5,201.2 L 348.4,196.3 L 350.2,191.4 L 351.8,186.6 L 353.4,181.8 L 354.9,177.2 L 356.3,172.6 L 357.5,168.1 L 358.7,163.6 L 359.8,159.3 L 360.8,155.0 L 361.7,150.8 L 362.5,146.8 L 363.2,142.8 L 363.8,138.8 L 364.3,135.0 L 364.8,131.3 L 365.1,127.6 L 365.4,124.0 L 365.6,120.5 L 365.7,117.1 L 365.8,113.8 L 365.7,110.6 L 365.5,107.5 L 365.3,104.4 L 365.0,101.5 L 364.5,98.7 L 364.0,95.9 L 363.4,93.3 L 362.7,90.8 L 361.9,88.4 L 361.0,86.2 L 360.0,84.0 L 358.9,82.0 L 357.6,80.2 L 356.3,78.5 L 354.8,76.9 L 353.2,75.5 L 351.5,74.3 L 349.7,73.3 L 347.8,72.4 L 345.7,71.7 L 343.5,71.3 L 341.2,71.0 L 338.8,70.9 L 336.2,71.1 L 333.6,71.5 L 330.8,72.1 L 327.9,72.9 L 324.9,73.9 L 321.7,75.2 L 318.5,76.7 L 315.2,78.4 L 311.8,80.4 L 308.3,82.6 L 304.7,85.0 L 301.1,87.6 L 297.4,90.4 L 293.6,93.5 L 289.8,96.7 L 285.9,100.2 L 282.0,103.8 L 278.1,107.6 L 274.2,111.5 L 270.2,115.7 L 266.3,119.9 L 262.3,124.3 L 258.4,128.9 L 254.5,133.5 L 250.6,138.3 L 246.8,143.1 L 242.9,148.0 L 239.2,153.0 L 235.4,158.1 L 231.7,163.2 L 228.1,168.4" fill="none" stroke="#80b4ff" stroke-width="1.37" opacity="0.53" stroke-linecap="round" stroke-linejoin="round"/>
    <path d="M 271.9,331.6 L 266.3,329.7 L 260.7,327.6 L 255.1,325.5 L 249.4,323.2 L 243.6,320.9 L 237.8,318.4 L 231.9,315.8 L 226.1,313.1 L 220.2,310.4 L 214.3,307.5 L 208.4,304.5 L 202.5,301.5 L 196.7,298.4 L 190.9,295.2 L 185.2,291.9 L 179.5,288.5 L 173.9,285.1 L 168.4,281.7 L 163.0,278.2 L 157.7,274.6 L 152.5,271.0 L 147.4,267.4 L 142.5,263.8 L 137.8,260.2 L 133.2,256.5 L 128.7,252.9 L 124.5,249.3 L 120.4,245.7 L 116.5,242.1 L 112.8,238.5 L 109.2,235.0 L 105.9,231.5 L 102.7,228.1 L 99.7,224.7 L 97.0,221.3 L 94.4,218.0 L 92.0,214.8 L 89.7,211.6 L 87.7,208.5 L 85.8,205.5 L 84.1,202.5 L 82.6,199.6 L 81.3,196.8 L 80.1,194.0 L 79.1,191.3 L 78.2,188.7 L 77.5,186.1 L 76.9,183.7 L 76.5,181.2 L 76.2,178.9 L 76.0,176.6 L 76.0,174.4 L 76.1,172.2 L 76.4,170.1 L 76.7,168.1 L 77.2,166.2 L 77.8,164.3 L 78.6,162.5 L 79.5,160.7 L 80.5,159.0 L 81.6,157.4 L 82.9,155.9 L 84.3,154.4 L 85.8,153.0 L 87.4,151.7 L 89.2,150.4 L 91.2,149.3 L 93.2,148.2 L 95.5,147.2 L 97.8,146.3 L 100.3,145.5 L 103.0,144.8 L 105.8,144.2 L 108.7,143.6 L 111.8,143.2 L 115.0,142.9 L 118.4,142.7 L 121.9,142.6 L 125.6,142.6 L 129.4,142.7 L 133.4,143.0 L 137.5,143.3 L 141.7,143.8 L 146.0,144.4 L 150.5,145.0 L 155.1,145.9 L 159.7,146.8 L 164.5,147.8 L 169.4,149.0 L 174.4,150.2 L 179.5,151.6 L 184.7,153.1 L 189.9,154.6 L 195.2,156.3 L 200.6,158.1 L 206.0,160.0 L 211.5,161.9 L 217.0,164.0 L 222.5,166.1 L 228.1,168.4" fill="none" stroke="#80b4ff" stroke-width="1.39" opacity="0.54" stroke-linecap="round" stroke-linejoin="round"/>
    <path d="M 271.9,331.6 L 273.3,325.1 L 274.8,318.7 L 276.1,312.3 L 277.4,306.1 L 278.6,299.9 L 279.8,293.8 L 281.0,287.8 L 282.1,281.9 L 283.1,276.1 L 284.2,270.4 L 285.1,264.8 L 286.1,259.3 L 287.0,253.9 L 288.0,248.5 L 288.9,243.2 L 289.8,237.9 L 290.7,232.7 L 291.6,227.5 L 292.5,222.4 L 293.4,217.2 L 294.3,212.0 L 295.2,206.8 L 296.1,201.6 L 297.0,196.3 L 297.9,191.0 L 298.8,185.6 L 299.7,180.2 L 300.7,174.8 L 301.6,169.3 L 302.5,163.7 L 303.3,158.1 L 304.2,152.5 L 305.0,146.8 L 305.8,141.1 L 306.6,135.4 L 307.3,129.7 L 308.0,124.0 L 308.6,118.4 L 309.1,112.8 L 309.6,107.3 L 310.1,101.8 L 310.4,96.5 L 310.7,91.3 L 310.8,86.2 L 310.9,81.3 L 310.9,76.6 L 310.8,72.1 L 310.6,67.9 L 310.3,63.8 L 309.9,60.1 L 309.4,56.6 L 308.8,53.4 L 308.1,50.4 L 307.3,47.8 L 306.4,45.5 L 305.4,43.5 L 304.3,41.9 L 303.1,40.5 L 301.9,39.5 L 300.6,38.8 L 299.2,38.5 L 297.7,38.4 L 296.2,38.6 L 294.6,39.2 L 293.0,40.0 L 291.3,41.1 L 289.5,42.5 L 287.8,44.1 L 286.0,45.9 L 284.2,48.0 L 282.3,50.2 L 280.5,52.7 L 278.6,55.4 L 276.7,58.2 L 274.8,61.2 L 272.9,64.3 L 271.0,67.5 L 269.1,70.9 L 267.2,74.4 L 265.3,78.0 L 263.4,81.7 L 261.6,85.5 L 259.7,89.3 L 257.8,93.3 L 255.9,97.3 L 254.0,101.5 L 252.1,105.7 L 250.3,110.0 L 248.4,114.3 L 246.5,118.8 L 244.7,123.3 L 242.8,127.9 L 240.9,132.6 L 239.1,137.5 L 237.2,142.4 L 235.4,147.4 L 233.6,152.5 L 231.7,157.7 L 229.9,163.0 L 228.1,168.4" fill="none" stroke="#80b4ff" stroke-width="1.40" opacity="0.55" stroke-linecap="round" stroke-linejoin="round"/>
    <path d="M 430.9,222.8 L 427.9,212.9 L 424.2,203.2 L 420.0,193.8 L 415.0,184.6 L 409.6,175.8 L 403.5,167.2 L 397.0,159.0 L 389.9,151.1 L 382.4,143.6 L 374.4,136.4 L 366.0,129.5 L 357.2,123.1 L 347.9,117.0 L 338.2,111.3 L 328.1,106.0 L 317.6,101.2 L 306.6,96.9 L 295.2,93.1 L 283.4,89.9 L 271.2,87.4 L 258.7,85.7 L 245.8,84.7 L 232.8,84.7 L 219.6,85.5 L 206.4,87.4 L 193.3,90.2 L 180.4,94.1 L 167.8,99.0 L 155.7,104.9 L 144.2,111.8 L 133.4,119.5 L 123.5,128.1 L 114.5,137.4 L 106.6,147.4 L 99.7,157.8 L 93.9,168.5 L 89.1,179.6 L 85.5,190.7 L 82.9,201.8 L 81.2,212.9 L 80.4,223.7 L 80.3,234.4 L 80.9,244.8 L 81.9,254.9 L 83.4,264.7 L 85.3,274.3 L 87.3,283.7 L 89.5,292.9 L 91.8,302.1 L 94.2,311.2 L 96.7,320.4 L 99.3,329.7 L 102.1,339.1 L 105.2,348.7 L 108.5,358.4 L 112.3,368.3 L 116.6,378.3 L 121.5,388.3 L 127.1,398.2 L 133.5,408.1 L 140.7,417.6 L 148.7,426.7 L 157.7,435.3 L 167.4,443.1 L 178.0,450.2 L 189.3,456.3 L 201.3,461.4 L 213.9,465.3 L 226.8,468.1 L 240.1,469.6 L 253.5,469.9 L 266.9,468.9 L 280.2,466.8 L 293.3,463.5 L 306.0,459.1 L 318.3,453.7 L 330.0,447.5 L 341.2,440.4 L 351.7,432.7 L 361.5,424.5 L 370.7,415.7 L 379.2,406.6 L 387.0,397.1 L 394.3,387.5 L 400.9,377.6 L 406.9,367.6 L 412.3,357.5 L 417.2,347.3 L 421.6,337.0 L 425.4,326.6 L 428.7,316.3 L 431.4,305.8 L 433.5,295.4 L 435.0,284.9 L 436.0,274.4 L 436.3,263.9 L 435.9,253.5 L 434.9,243.1 L 433.3,232.9 L 430.9,222.8" fill="none" stroke="#80b4ff" stroke-width="1.42" opacity="0.56" stroke-linecap="round" stroke-linejoin="round"/>
    <path d="M 271.9,331.6 L 271.1,324.8 L 270.4,318.0 L 269.7,311.4 L 268.9,304.9 L 268.2,298.5 L 267.5,292.3 L 266.8,286.2 L 266.1,280.2 L 265.4,274.5 L 264.7,268.8 L 264.0,263.2 L 263.4,257.8 L 262.7,252.4 L 262.1,247.2 L 261.5,241.9 L 260.9,236.8 L 260.3,231.6 L 259.7,226.4 L 259.2,221.3 L 258.6,216.0 L 258.0,210.8 L 257.4,205.4 L 256.8,200.0 L 256.3,194.5 L 255.7,188.8 L 255.0,183.1 L 254.4,177.2 L 253.8,171.3 L 253.1,165.2 L 252.4,159.0 L 251.7,152.7 L 251.0,146.3 L 250.2,139.9 L 249.5,133.4 L 248.7,126.9 L 247.9,120.4 L 247.0,113.9 L 246.2,107.4 L 245.3,101.0 L 244.4,94.8 L 243.6,88.6 L 242.7,82.7 L 241.8,76.9 L 240.9,71.4 L 240.0,66.1 L 239.1,61.2 L 238.2,56.5 L 237.3,52.2 L 236.5,48.3 L 235.7,44.7 L 234.9,41.6 L 234.1,38.8 L 233.4,36.5 L 232.7,34.6 L 232.0,33.2 L 231.4,32.2 L 230.8,31.6 L 230.3,31.4 L 229.8,31.7 L 229.3,32.3 L 228.9,33.3 L 228.5,34.7 L 228.2,36.4 L 227.9,38.5 L 227.7,40.8 L 227.5,43.4 L 227.3,46.2 L 227.2,49.2 L 227.0,52.4 L 227.0,55.8 L 226.9,59.2 L 226.9,62.8 L 226.9,66.4 L 226.9,70.1 L 226.9,73.9 L 226.9,77.6 L 226.9,81.3 L 227.0,85.0 L 227.0,88.7 L 227.1,92.4 L 227.1,96.0 L 227.1,99.5 L 227.2,103.1 L 227.2,106.6 L 227.2,110.0 L 227.3,113.5 L 227.3,116.9 L 227.3,120.4 L 227.3,123.9 L 227.3,127.4 L 227.4,131.0 L 227.4,134.6 L 227.4,138.3 L 227.5,142.2 L 227.5,146.1 L 227.6,150.3 L 227.7,154.5 L 227.8,159.0 L 228.0,163.6 L 228.1,168.4" fill="none" stroke="#80b4ff" stroke-width="1.43" opacity="0.57" stroke-linecap="round" stroke-linejoin="round"/>
    <path d="M 271.9,331.6 L 267.5,327.5 L 263.2,323.4 L 258.8,319.1 L 254.5,314.9 L 250.1,310.5 L 245.8,306.2 L 241.5,301.8 L 237.2,297.4 L 232.9,292.9 L 228.6,288.4 L 224.3,283.9 L 220.1,279.4 L 215.8,274.8 L 211.6,270.2 L 207.4,265.6 L 203.2,260.9 L 199.0,256.3 L 194.8,251.6 L 190.6,246.8 L 186.4,242.1 L 182.3,237.3 L 178.2,232.5 L 174.1,227.6 L 170.0,222.7 L 166.0,217.9 L 161.9,213.0 L 158.0,208.1 L 154.1,203.1 L 150.3,198.2 L 146.5,193.3 L 142.8,188.5 L 139.2,183.6 L 135.8,178.8 L 132.4,174.0 L 129.2,169.4 L 126.1,164.7 L 123.1,160.2 L 120.4,155.8 L 117.8,151.5 L 115.3,147.3 L 113.1,143.3 L 111.1,139.4 L 109.3,135.7 L 107.7,132.2 L 106.4,128.9 L 105.3,125.7 L 104.4,122.8 L 103.7,120.1 L 103.3,117.7 L 103.2,115.5 L 103.2,113.5 L 103.6,111.7 L 104.1,110.2 L 104.8,108.9 L 105.8,107.9 L 107.0,107.1 L 108.4,106.5 L 109.9,106.1 L 111.7,106.0 L 113.5,106.0 L 115.6,106.3 L 117.7,106.7 L 120.0,107.3 L 122.4,108.0 L 124.9,108.9 L 127.5,109.9 L 130.1,111.0 L 132.8,112.2 L 135.5,113.5 L 138.2,114.9 L 141.0,116.3 L 143.8,117.8 L 146.5,119.3 L 149.3,120.8 L 152.1,122.3 L 154.8,123.9 L 157.6,125.4 L 160.3,127.0 L 163.0,128.5 L 165.7,130.0 L 168.4,131.5 L 171.1,133.0 L 173.7,134.5 L 176.4,136.0 L 179.2,137.5 L 181.9,139.1 L 184.7,140.6 L 187.5,142.2 L 190.4,143.9 L 193.3,145.6 L 196.4,147.3 L 199.5,149.2 L 202.7,151.1 L 206.0,153.2 L 209.4,155.4 L 212.9,157.7 L 216.5,160.1 L 220.3,162.7 L 224.1,165.4 L 228.1,168.4" fill="none" stroke="#80b4ff" stroke-width="1.44" opacity="0.57" stroke-linecap="round" stroke-linejoin="round"/>
    <path d="M 271.9,331.6 L 269.2,325.7 L 266.5,319.8 L 263.9,314.0 L 261.3,308.2 L 258.7,302.5 L 256.2,296.8 L 253.7,291.2 L 251.3,285.7 L 248.9,280.3 L 246.5,274.9 L 244.1,269.6 L 241.8,264.3 L 239.5,259.1 L 237.2,253.9 L 234.9,248.7 L 232.6,243.5 L 230.3,238.3 L 228.0,233.1 L 225.7,227.9 L 223.4,222.6 L 221.0,217.3 L 218.6,211.9 L 216.2,206.4 L 213.7,200.9 L 211.2,195.2 L 208.7,189.5 L 206.2,183.7 L 203.6,177.9 L 201.1,172.0 L 198.5,166.0 L 195.9,160.0 L 193.3,153.9 L 190.7,147.8 L 188.2,141.7 L 185.6,135.7 L 183.2,129.7 L 180.7,123.8 L 178.4,117.9 L 176.1,112.2 L 173.9,106.7 L 171.9,101.3 L 169.9,96.1 L 168.1,91.2 L 166.4,86.5 L 164.9,82.1 L 163.5,78.0 L 162.3,74.2 L 161.3,70.8 L 160.4,67.7 L 159.8,65.1 L 159.3,62.8 L 159.0,60.9 L 158.9,59.4 L 158.9,58.2 L 159.2,57.5 L 159.6,57.2 L 160.2,57.3 L 161.0,57.7 L 161.9,58.5 L 163.0,59.6 L 164.1,61.0 L 165.4,62.8 L 166.9,64.8 L 168.4,67.0 L 170.0,69.5 L 171.6,72.1 L 173.3,74.9 L 175.1,77.8 L 176.9,80.9 L 178.7,84.0 L 180.5,87.1 L 182.3,90.3 L 184.2,93.5 L 185.9,96.6 L 187.7,99.8 L 189.4,102.8 L 191.1,105.8 L 192.8,108.7 L 194.4,111.6 L 196.0,114.3 L 197.5,117.0 L 199.0,119.6 L 200.5,122.1 L 201.9,124.5 L 203.3,126.9 L 204.8,129.2 L 206.2,131.5 L 207.6,133.8 L 209.0,136.2 L 210.5,138.5 L 211.9,140.9 L 213.5,143.4 L 215.0,145.9 L 216.7,148.6 L 218.4,151.5 L 220.2,154.4 L 222.0,157.6 L 224.0,161.0 L 226.0,164.6 L 228.1,168.4" fill="none" stroke="#80b4ff" stroke-width="1.46" opacity="0.58" stroke-linecap="round" stroke-linejoin="round"/>
    <path d="M 440.6,245.7 L 437.3,235.6 L 432.9,225.9 L 427.5,216.5 L 421.1,207.7 L 413.9,199.3 L 406.0,191.7 L 397.5,184.6 L 388.6,178.2 L 379.3,172.4 L 369.8,167.2 L 360.1,162.6 L 350.4,158.6 L 340.7,155.0 L 331.0,151.8 L 321.4,148.9 L 311.7,146.4 L 302.1,144.2 L 292.4,142.3 L 282.6,140.7 L 272.7,139.3 L 262.6,138.4 L 252.3,137.8 L 241.8,137.7 L 231.1,138.1 L 220.3,139.2 L 209.4,140.9 L 198.4,143.4 L 187.4,146.6 L 176.7,150.6 L 166.1,155.4 L 156.0,161.1 L 146.4,167.5 L 137.5,174.7 L 129.2,182.5 L 121.8,190.8 L 115.3,199.7 L 109.7,208.9 L 105.0,218.4 L 101.3,228.0 L 98.5,237.7 L 96.6,247.4 L 95.4,257.0 L 95.0,266.5 L 95.1,275.9 L 95.8,285.1 L 96.9,294.2 L 98.4,303.1 L 100.2,312.0 L 102.2,320.9 L 104.5,329.7 L 107.0,338.6 L 109.7,347.6 L 112.7,356.6 L 116.1,365.8 L 119.9,375.0 L 124.2,384.2 L 129.0,393.4 L 134.4,402.5 L 140.5,411.3 L 147.3,419.8 L 154.9,427.8 L 163.1,435.1 L 172.1,441.8 L 181.7,447.5 L 191.9,452.4 L 202.5,456.1 L 213.6,458.8 L 224.9,460.3 L 236.3,460.7 L 247.8,460.0 L 259.1,458.3 L 270.2,455.5 L 281.1,451.9 L 291.5,447.5 L 301.6,442.5 L 311.2,436.9 L 320.4,430.9 L 329.1,424.6 L 337.5,418.2 L 345.6,411.6 L 353.4,404.9 L 361.0,398.3 L 368.3,391.6 L 375.6,384.9 L 382.8,378.1 L 389.8,371.2 L 396.8,364.2 L 403.6,357.0 L 410.2,349.5 L 416.5,341.7 L 422.5,333.5 L 427.9,324.9 L 432.7,315.9 L 436.8,306.6 L 440.0,296.9 L 442.3,286.9 L 443.6,276.7 L 443.7,266.3 L 442.7,256.0 L 440.6,245.7" fill="none" stroke="#80b4ff" stroke-width="1.59" opacity="0.64" stroke-linecap="round" stroke-linejoin="round"/>
    <path d="M 429.3,274.9 L 426.2,265.8 L 421.8,256.9 L 416.3,248.4 L 409.8,240.3 L 402.3,232.7 L 394.1,225.8 L 385.3,219.6 L 376.1,214.0 L 366.7,209.2 L 357.1,205.1 L 347.6,201.6 L 338.2,198.7 L 329.0,196.3 L 320.2,194.4 L 311.6,192.9 L 303.3,191.7 L 295.3,190.7 L 287.5,189.9 L 279.9,189.4 L 272.3,189.0 L 264.9,188.8 L 257.3,188.8 L 249.7,189.0 L 242.0,189.6 L 234.0,190.5 L 226.0,191.8 L 217.7,193.5 L 209.4,195.8 L 201.0,198.6 L 192.6,202.0 L 184.3,206.1 L 176.2,210.7 L 168.5,216.0 L 161.1,221.8 L 154.2,228.1 L 147.8,234.9 L 142.1,242.1 L 137.1,249.6 L 132.7,257.4 L 129.1,265.4 L 126.2,273.5 L 124.0,281.6 L 122.5,289.8 L 121.5,297.9 L 121.2,306.1 L 121.4,314.2 L 122.0,322.2 L 123.1,330.2 L 124.6,338.2 L 126.6,346.1 L 128.9,354.0 L 131.6,361.9 L 134.7,369.7 L 138.3,377.5 L 142.4,385.1 L 146.9,392.6 L 151.9,399.8 L 157.5,406.6 L 163.6,413.1 L 170.3,419.0 L 177.4,424.3 L 185.1,428.8 L 193.2,432.6 L 201.6,435.6 L 210.3,437.6 L 219.2,438.6 L 228.2,438.8 L 237.1,438.0 L 246.0,436.4 L 254.7,433.9 L 263.2,430.8 L 271.4,427.0 L 279.2,422.8 L 286.7,418.3 L 293.8,413.6 L 300.7,408.7 L 307.3,403.9 L 313.7,399.2 L 320.0,394.7 L 326.3,390.4 L 332.6,386.3 L 339.1,382.5 L 345.7,378.8 L 352.5,375.3 L 359.5,371.8 L 366.7,368.3 L 374.1,364.6 L 381.6,360.6 L 389.0,356.3 L 396.3,351.5 L 403.4,346.2 L 409.9,340.3 L 415.9,333.7 L 421.1,326.6 L 425.4,319.0 L 428.7,310.8 L 430.7,302.2 L 431.6,293.2 L 431.1,284.1 L 429.3,274.9" fill="none" stroke="#80b4ff" stroke-width="1.73" opacity="0.71" stroke-linecap="round" stroke-linejoin="round"/>
    <path d="M 389.7,304.2 L 387.4,297.5 L 384.2,290.9 L 380.1,284.3 L 375.1,278.0 L 369.5,272.0 L 363.3,266.3 L 356.6,261.1 L 349.6,256.3 L 342.4,252.0 L 335.1,248.3 L 327.9,245.0 L 320.7,242.2 L 313.7,239.8 L 307.0,237.9 L 300.6,236.3 L 294.4,235.1 L 288.4,234.2 L 282.8,233.5 L 277.3,233.1 L 272.0,232.9 L 266.8,233.0 L 261.7,233.2 L 256.5,233.7 L 251.4,234.5 L 246.1,235.5 L 240.8,236.9 L 235.4,238.5 L 229.9,240.5 L 224.3,242.9 L 218.7,245.7 L 213.1,248.9 L 207.6,252.5 L 202.1,256.4 L 196.9,260.8 L 191.9,265.4 L 187.2,270.4 L 182.9,275.7 L 178.9,281.2 L 175.4,286.9 L 172.3,292.8 L 169.7,298.8 L 167.6,304.8 L 165.9,310.9 L 164.7,317.1 L 164.0,323.2 L 163.7,329.3 L 163.9,335.4 L 164.5,341.5 L 165.5,347.5 L 166.9,353.4 L 168.6,359.3 L 170.8,365.0 L 173.3,370.6 L 176.3,376.0 L 179.6,381.2 L 183.3,386.2 L 187.3,390.9 L 191.8,395.1 L 196.5,399.0 L 201.7,402.4 L 207.1,405.2 L 212.7,407.4 L 218.6,409.0 L 224.6,410.0 L 230.7,410.3 L 236.9,409.9 L 243.0,408.9 L 249.1,407.4 L 255.0,405.3 L 260.8,402.7 L 266.3,399.7 L 271.7,396.5 L 276.8,393.1 L 281.7,389.6 L 286.5,386.1 L 291.1,382.7 L 295.6,379.5 L 300.0,376.4 L 304.5,373.7 L 309.1,371.3 L 313.7,369.1 L 318.6,367.2 L 323.6,365.5 L 328.9,364.0 L 334.4,362.5 L 340.0,361.1 L 345.8,359.5 L 351.7,357.8 L 357.5,355.8 L 363.3,353.4 L 368.8,350.6 L 374.0,347.4 L 378.7,343.6 L 382.8,339.2 L 386.2,334.4 L 388.8,329.1 L 390.5,323.3 L 391.3,317.2 L 391.0,310.8 L 389.7,304.2" fill="none" stroke="#80b4ff" stroke-width="1.83" opacity="0.77" stroke-linecap="round" stroke-linejoin="round"/>
    <path d="M 331.0,324.6 L 329.9,321.3 L 328.4,317.9 L 326.5,314.4 L 324.3,310.9 L 321.7,307.5 L 318.8,304.2 L 315.7,300.9 L 312.4,297.8 L 309.0,294.9 L 305.4,292.1 L 301.9,289.6 L 298.3,287.3 L 294.8,285.3 L 291.3,283.5 L 287.9,282.0 L 284.6,280.7 L 281.4,279.7 L 278.2,278.9 L 275.2,278.4 L 272.2,278.1 L 269.3,278.0 L 266.5,278.2 L 263.7,278.7 L 260.9,279.3 L 258.1,280.2 L 255.3,281.3 L 252.6,282.7 L 249.8,284.3 L 247.1,286.0 L 244.4,288.0 L 241.7,290.2 L 239.1,292.5 L 236.6,295.0 L 234.1,297.7 L 231.8,300.4 L 229.6,303.4 L 227.5,306.4 L 225.6,309.4 L 223.9,312.6 L 222.4,315.8 L 221.1,319.0 L 220.0,322.2 L 219.2,325.5 L 218.5,328.8 L 218.1,332.0 L 217.9,335.2 L 218.0,338.4 L 218.2,341.5 L 218.7,344.7 L 219.4,347.7 L 220.3,350.7 L 221.5,353.6 L 222.8,356.4 L 224.3,359.0 L 226.0,361.6 L 228.0,364.0 L 230.1,366.1 L 232.3,368.1 L 234.7,369.9 L 237.3,371.3 L 240.0,372.5 L 242.8,373.4 L 245.7,374.0 L 248.6,374.3 L 251.6,374.3 L 254.6,374.0 L 257.6,373.4 L 260.6,372.5 L 263.5,371.4 L 266.4,370.1 L 269.2,368.6 L 272.0,367.0 L 274.7,365.3 L 277.4,363.6 L 280.0,361.9 L 282.5,360.2 L 285.1,358.6 L 287.6,357.1 L 290.2,355.8 L 292.7,354.6 L 295.3,353.5 L 298.0,352.5 L 300.7,351.7 L 303.4,350.9 L 306.2,350.3 L 309.0,349.6 L 311.8,348.9 L 314.6,348.2 L 317.3,347.4 L 320.0,346.4 L 322.4,345.2 L 324.7,343.9 L 326.8,342.3 L 328.5,340.5 L 329.9,338.4 L 331.0,336.1 L 331.6,333.5 L 331.9,330.7 L 331.7,327.7 L 331.0,324.6" fill="none" stroke="#80b4ff" stroke-width="1.90" opacity="0.80" stroke-linecap="round" stroke-linejoin="round"/>
  </g>
  <path id="solid-surface" d="M 126.9,92.4 A 200 200 0 1 1 383.8,398.6 C 290.0,280.0 280.0,170.0 126.9,92.4 Z" fill="url(#sphere-grad)"/>
  <path id="cutaway-edge" d="M 126.9,92.4 C 280.0,170.0 290.0,280.0 383.8,398.6" fill="none" stroke="#80b4ff" stroke-width="1.5" opacity="0.6" stroke-linecap="round"/>
</svg>